<?xml version="1.0" encoding="UTF-8"?>
<svg version="1.1" xmlns="http://www.w3.org/2000/svg" width="284" height="284">
<path d="M0 0 C2.52083399 0.02148716 5.03882012 0.00002213 7.55957031 -0.02539062 C40.88133068 -0.08276774 71.22598769 13.32992153 96.52050781 34.52148438 C97.31199219 35.17761719 98.10347656 35.83375 98.91894531 36.50976562 C103.0962265 40.04946179 103.0962265 40.04946179 104.52050781 41.52148438 C104.52050781 42.18148437 104.52050781 42.84148438 104.52050781 43.52148438 C105.51050781 43.85148437 106.50050781 44.18148437 107.52050781 44.52148438 C132.59473798 70.4674158 145.45996467 106.65227732 145.08300781 142.27148438 C145.07874786 143.14001038 145.07448792 144.00853638 145.07009888 144.90338135 C144.97484011 158.91332797 143.89997842 172.12079607 139.52050781 185.52148438 C139.26350098 186.32086426 139.00649414 187.12024414 138.74169922 187.94384766 C126.88966617 223.6163572 100.54155785 252.99928503 67.52050781 270.52148438 C57.88373111 275.16941087 47.86558094 278.80446631 37.52050781 281.52148438 C36.55814209 281.7833252 35.59577637 282.04516602 34.60424805 282.31494141 C24.25188111 284.85778744 14.19563065 285.07663661 3.58300781 285.02148438 C2.67831757 285.01972198 1.77362732 285.01795959 0.84152222 285.0161438 C-13.42672424 284.95420183 -26.83121897 284.00342659 -40.47949219 279.52148438 C-41.26678711 279.26979492 -42.05408203 279.01810547 -42.86523438 278.75878906 C-60.63693297 272.90362935 -76.23268023 263.53531156 -90.47949219 251.52148438 C-91.04732422 251.07111816 -91.61515625 250.62075195 -92.20019531 250.15673828 C-93.66232897 248.98831393 -95.07563363 247.75931774 -96.47949219 246.52148438 C-96.47949219 245.86148438 -96.47949219 245.20148438 -96.47949219 244.52148438 C-97.0221875 244.32039062 -97.56488281 244.11929688 -98.12402344 243.91210938 C-101.45027473 241.94835239 -103.70473203 239.18980615 -106.16699219 236.27148438 C-106.69518555 235.64741699 -107.22337891 235.02334961 -107.76757812 234.38037109 C-129.27431338 208.46950403 -140.39683484 176.30108696 -140.04199219 142.77148438 C-140.03773224 141.90295837 -140.03347229 141.03443237 -140.02908325 140.1395874 C-139.93382448 126.12964078 -138.8589628 112.92217268 -134.47949219 99.52148438 C-134.22248535 98.72210449 -133.96547852 97.92272461 -133.70068359 97.09912109 C-127.40352359 78.14579052 -116.91517282 62.02196377 -104.10449219 46.83398438 C-103.58008545 46.20862793 -103.05567871 45.58327148 -102.51538086 44.93896484 C-101.21540071 43.42631464 -99.85237509 41.96829174 -98.47949219 40.52148438 C-97.81949219 40.52148438 -97.15949219 40.52148438 -96.47949219 40.52148438 C-96.14949219 39.53148437 -95.81949219 38.54148438 -95.47949219 37.52148438 C-70.34754247 13.2338887 -34.65380984 -0.34935985 0 0 Z " fill="#FDB030" transform="translate(139.4794921875,-0.521484375)"/>
<path d="M0 0 C3.29240875 2.79854744 5.03562946 6.20673275 7 10 C7 10.99 7 11.98 7 13 C7.93199219 12.46890625 8.86398438 11.9378125 9.82421875 11.390625 C30.98858209 -0.43068474 57.22095829 -4.3619366 81 2 C93.45711965 5.65688505 105.6471376 9.6288414 117 16 C117.62830239 29.3413996 118.16468433 42.64227107 118 56 C118 56.66 118 57.32 118 58 C120.475 50.08 120.475 50.08 123 42 C125.413125 41.938125 125.413125 41.938125 127.875 41.875 C129.23238281 41.84019531 129.23238281 41.84019531 130.6171875 41.8046875 C133 42 133 42 135 44 C135.86680041 52.0901372 133.03333151 58.22381291 129.25 65.25 C125.52575818 69.80185112 121.16197953 73.1433666 115.6875 75.3125 C112.14353953 77.53777751 111.98269549 79.37881259 110.88671875 83.28125 C107.29921213 94.28082977 100.1078761 103.8921239 92 112 C91.53837573 114.43252661 91.53837573 114.43252661 91.375 117.125 C91.30023438 118.03507812 91.22546875 118.94515625 91.1484375 119.8828125 C91.07496094 120.93082031 91.07496094 120.93082031 91 122 C93.23019727 121.71632132 95.45913454 121.42272612 97.6875 121.125 C98.92886719 120.96257812 100.17023438 120.80015625 101.44921875 120.6328125 C104.92697061 120.14624139 104.92697061 120.14624139 107.70703125 118.8671875 C110.38623337 117.85392877 111.37141715 117.96029685 114 119 C120.7136515 122.47448768 127.63850254 126.89672911 130.875 133.875 C134.68448923 140.70308104 144.14435971 143.15797051 151 146 C151 146.66 151 147.32 151 148 C151.66 148 152.32 148 153 148 C153 148.66 153 149.32 153 150 C153.66 150 154.32 150 155 150 C155 150.66 155 151.32 155 152 C155.66 152 156.32 152 157 152 C157 152.66 157 153.32 157 154 C157.66 154 158.32 154 159 154 C159 154.66 159 155.32 159 156 C159.66 156 160.32 156 161 156 C162.76462683 159.08809695 163 160.23312136 163 164 C163.66 164 164.32 164 165 164 C165 167 165 167 162.85546875 169.3828125 C143.35828283 187.25301027 121.69598629 200.25123582 96 207 C95.03763428 207.26184082 94.07526855 207.52368164 93.08374023 207.79345703 C82.7313733 210.33630307 72.67512284 210.55515223 62.0625 210.5 C61.15780975 210.49823761 60.25311951 210.49647522 59.3210144 210.49465942 C45.05276795 210.43271745 31.64827321 209.48194221 18 205 C17.21270508 204.74831055 16.42541016 204.49662109 15.61425781 204.23730469 C-2.15744079 198.38214497 -17.75318804 189.01382718 -32 177 C-32.56783203 176.54963379 -33.13566406 176.09926758 -33.72070312 175.63525391 C-35.18283678 174.46682955 -36.59614144 173.23783337 -38 172 C-38 171.34 -38 170.68 -38 170 C-39.32 169.34 -40.64 168.68 -42 168 C-41.505 164.04 -41.505 164.04 -41 160 C-40.34 160 -39.68 160 -39 160 C-39 158.68 -39 157.36 -39 156 C-38.34 156 -37.68 156 -37 156 C-36.01 154.02 -36.01 154.02 -35 152 C-34.34 152 -33.68 152 -33 152 C-33 151.34 -33 150.68 -33 150 C-32.34 150 -31.68 150 -31 150 C-31 149.34 -31 148.68 -31 148 C-30.34 148 -29.68 148 -29 148 C-29 147.34 -29 146.68 -29 146 C-27.68 146 -26.36 146 -25 146 C-25 145.34 -25 144.68 -25 144 C-24.34 144 -23.68 144 -23 144 C-23 143.34 -23 142.68 -23 142 C-22.29875 141.83886719 -21.5975 141.67773438 -20.875 141.51171875 C-13.2480447 139.32518673 -10.36442704 136.38683005 -6.10546875 129.8359375 C-2.24496225 124.6360716 3.2440501 120.38508451 9.3515625 118.1328125 C13.11007402 117.94433257 16.22831828 119.19148315 19.6875 120.5 C22.11598196 121.40286746 24.52387924 122.22639541 27 123 C27.66 122.67 28.32 122.34 29 122 C29.45834871 114.39680376 28.41316407 109.78126243 23.3125 104 C22.86076416 103.50814209 22.40902832 103.01628418 21.94360352 102.50952148 C16.27782572 96.29469102 12.72697894 89.28888521 10.8125 81.125 C9.90194463 78.07518805 9.2644202 77.17970305 6.5859375 75.359375 C4.64852795 74.36717065 2.69620546 73.40357855 0.73046875 72.46875 C-3.19121275 70.3592332 -5.44203402 67.5653841 -8 64 C-8.5775 63.319375 -9.155 62.63875 -9.75 61.9375 C-13.26795525 56.48466937 -13.77512345 50.33777411 -13 44 C-11 42 -11 42 -8.6171875 41.8046875 C-7.25980469 41.83949219 -7.25980469 41.83949219 -5.875 41.875 C-3.461875 41.936875 -3.461875 41.936875 -1 42 C0.98 48.27 2.96 54.54 5 61 C4.505 57.535 4.505 57.535 4 54 C3.95463834 51.46915515 3.96016272 48.93705281 4.0078125 46.40625 C4.025353 44.94792392 4.0422589 43.48959009 4.05859375 42.03125 C4.08923462 39.77841666 4.12445847 37.5259933 4.17138672 35.2734375 C4.37880736 24.72062111 3.44370966 15.28427647 1 5 C0.65944049 3.33479487 0.32315783 1.6686695 0 0 Z " fill="#F2D494" transform="translate(81,74)"/>
<path d="M0 0 C3.0625 0.1875 3.0625 0.1875 6.0625 1.1875 C7.72612417 1.53570041 9.39245171 1.87154492 11.0625 2.1875 C11.77283431 7.71717941 12.36517176 12.68733036 11.0625 18.1875 C9.5775 18.6825 9.5775 18.6825 8.0625 19.1875 C6.97083725 21.12080603 6.97083725 21.12080603 6.0625 23.1875 C5.4025 23.8475 4.7425 24.5075 4.0625 25.1875 C3.7076046 27.18378664 3.37671071 29.18440671 3.0625 31.1875 C2.5984375 32.3321875 2.5984375 32.3321875 2.125 33.5 C0.62595607 37.29169934 -0.12113533 41.2012087 -0.9375 45.1875 C-5.37103014 40.87510456 -6.22437368 37.36792814 -6.9375 31.1875 C-8.58324651 36.99057404 -9.35516704 42.28514071 -9.375 48.3125 C-9.37886719 49.13274658 -9.38273437 49.95299316 -9.38671875 50.7980957 C-9.24002887 58.65440841 -7.19004567 65.06674822 -3.9375 72.1875 C-5.39630109 72.04642253 -6.85453551 71.89947585 -8.3125 71.75 C-9.53066406 71.62818359 -9.53066406 71.62818359 -10.7734375 71.50390625 C-12.9375 71.1875 -12.9375 71.1875 -14.9375 70.1875 C-14.27363281 71.14269531 -13.60976562 72.09789063 -12.92578125 73.08203125 C0.0625 92.00465575 0.0625 92.00465575 0.0625 100.1875 C-0.57558594 100.24808594 -1.21367188 100.30867188 -1.87109375 100.37109375 C-2.69738281 100.45488281 -3.52367188 100.53867188 -4.375 100.625 C-5.19871094 100.70621094 -6.02242188 100.78742188 -6.87109375 100.87109375 C-8.92412025 100.97680815 -8.92412025 100.97680815 -9.9375 102.1875 C-10.8487814 111.33536332 -8.40095812 118.04053157 -2.8203125 125.26171875 C0.59741806 128.75744731 4.79742061 130.88244849 9.0625 133.1875 C12.88187856 135.73375237 13.38939421 138.46645496 14.75 142.625 C17.58180234 150.72183015 21.47127048 157.70690252 27.68359375 163.76953125 C31.1352434 167.16251263 31.38244266 169.79616659 31.4375 174.4375 C31.26462766 179.78324468 31.26462766 179.78324468 30.0625 182.1875 C28.33232492 181.73298816 26.60340123 181.27371143 24.875 180.8125 C23.91207031 180.55726563 22.94914062 180.30203125 21.95703125 180.0390625 C19.0625 179.1875 19.0625 179.1875 16.51171875 178.0234375 C13.48930823 176.99186517 12.08059758 177.18614669 9.0625 178.1875 C1.48238237 182.42511434 -3.28831385 187.71063033 -8.09375 194.8203125 C-10.75807369 198.24103317 -12.77125404 199.14593851 -16.9375 200.1875 C-18.2575 200.1875 -19.5775 200.1875 -20.9375 200.1875 C-20.9375 200.8475 -20.9375 201.5075 -20.9375 202.1875 C-21.5975 202.1875 -22.2575 202.1875 -22.9375 202.1875 C-22.9375 202.8475 -22.9375 203.5075 -22.9375 204.1875 C-24.2575 204.1875 -25.5775 204.1875 -26.9375 204.1875 C-26.9375 204.8475 -26.9375 205.5075 -26.9375 206.1875 C-27.5975 206.1875 -28.2575 206.1875 -28.9375 206.1875 C-28.9375 206.8475 -28.9375 207.5075 -28.9375 208.1875 C-29.5975 208.1875 -30.2575 208.1875 -30.9375 208.1875 C-30.9375 208.8475 -30.9375 209.5075 -30.9375 210.1875 C-32.8125 212.3125 -32.8125 212.3125 -34.9375 214.1875 C-35.5975 214.1875 -36.2575 214.1875 -36.9375 214.1875 C-36.9375 215.5075 -36.9375 216.8275 -36.9375 218.1875 C-37.5975 218.1875 -38.2575 218.1875 -38.9375 218.1875 C-39.2675 220.4975 -39.5975 222.8075 -39.9375 225.1875 C-64.00662491 201.50177708 -78.9490683 168.23702527 -79.44207764 134.31617737 C-79.45702223 131.77297665 -79.45115312 129.23070129 -79.4375 126.6875 C-79.43573761 125.80898376 -79.43397522 124.93046753 -79.43215942 124.02532959 C-79.36919287 109.92370657 -78.34673 96.67924869 -73.9375 83.1875 C-73.68049316 82.38812012 -73.42348633 81.58874023 -73.15869141 80.76513672 C-66.8615314 61.81180614 -56.37318064 45.6879794 -43.5625 30.5 C-43.03809326 29.87464355 -42.51368652 29.24928711 -41.97338867 28.60498047 C-40.67340852 27.09233027 -39.3103829 25.63430736 -37.9375 24.1875 C-37.2775 24.1875 -36.6175 24.1875 -35.9375 24.1875 C-35.4425 22.7025 -35.4425 22.7025 -34.9375 21.1875 C-29.1856268 15.62887156 -22.4985902 11.07455052 -15.875 6.625 C-15.21999512 6.18341553 -14.56499023 5.74183105 -13.89013672 5.28686523 C-9.1896484 2.1875 -9.1896484 2.1875 -6.9375 2.1875 C-6.4425 3.6725 -6.4425 3.6725 -5.9375 5.1875 C-6.5975 5.5175 -7.2575 5.8475 -7.9375 6.1875 C-6.9475 6.8475 -5.9575 7.5075 -4.9375 8.1875 C-4.97875 7.23875 -5.02 6.29 -5.0625 5.3125 C-4.89518659 1.12966473 -4.19685723 0.2678845 0 0 Z " fill="#FDAF30" transform="translate(78.9375,15.8125)"/>
<path d="M0 0 C2.45468424 0.82362893 4.88382453 1.66956783 7.3125 2.5625 C7.95767578 2.79646484 8.60285156 3.03042969 9.26757812 3.27148438 C10.84621219 3.84447007 12.42327026 4.42179464 14 5 C13.86078125 6.13695312 13.7215625 7.27390625 13.578125 8.4453125 C12.91973722 16.23411622 12.69498012 22.49652952 17.83618164 28.7668457 C19.96809325 31.07427679 22.15507885 33.30315278 24.42675781 35.47314453 C26.69448111 37.67400448 28.74040435 40.05351451 30.8125 42.4375 C34.42179083 46.41948934 38.15593283 50.24556134 42 54 C43.33333333 55.33333333 44.66666667 56.66666667 46 58 C50.87419602 56.81837672 53.05246374 53.89085355 56.12109375 50.19921875 C57.9437734 48.065812 59.85603295 46.13421773 61.875 44.1875 C65.84735768 40.27684885 69.33890275 36.05643204 72.82421875 31.7109375 C75 29 75 29 77.75 26.25 C80.76578609 21.89386454 80.57947303 18.77552588 80.3125 13.625 C80.28994141 12.79355469 80.26738281 11.96210938 80.24414062 11.10546875 C80.18563654 9.06952647 80.09596795 7.03452055 80 5 C82.57861025 3.96555751 85.16174635 2.94727716 87.75 1.9375 C88.47960937 1.64294922 89.20921875 1.34839844 89.9609375 1.04492188 C91.02441406 0.6340332 91.02441406 0.6340332 92.109375 0.21484375 C92.75874023 -0.04176025 93.40810547 -0.29836426 94.07714844 -0.56274414 C97.84713425 -1.42003777 100.67460691 0.21273633 103.8125 2.1875 C109.23637482 5.7160431 114.10278555 8.89777813 116.875 14.875 C120.68448923 21.70308104 130.14435971 24.15797051 137 27 C137 27.66 137 28.32 137 29 C137.66 29 138.32 29 139 29 C139 29.66 139 30.32 139 31 C139.66 31 140.32 31 141 31 C141 31.66 141 32.32 141 33 C141.66 33 142.32 33 143 33 C143 33.66 143 34.32 143 35 C143.66 35 144.32 35 145 35 C145 35.66 145 36.32 145 37 C145.66 37 146.32 37 147 37 C148.76462683 40.08809695 149 41.23312136 149 45 C149.66 45 150.32 45 151 45 C151 48 151 48 148.85546875 50.3828125 C129.35828283 68.25301027 107.69598629 81.25123582 82 88 C81.03763428 88.26184082 80.07526855 88.52368164 79.08374023 88.79345703 C68.7313733 91.33630307 58.67512284 91.55515223 48.0625 91.5 C47.15780975 91.49823761 46.25311951 91.49647522 45.3210144 91.49465942 C31.05276795 91.43271745 17.64827321 90.48194221 4 86 C3.21270508 85.74831055 2.42541016 85.49662109 1.61425781 85.23730469 C-16.15744079 79.38214497 -31.75318804 70.01382718 -46 58 C-46.56783203 57.54963379 -47.13566406 57.09926758 -47.72070312 56.63525391 C-49.18283678 55.46682955 -50.59614144 54.23783337 -52 53 C-52 52.34 -52 51.68 -52 51 C-53.32 50.34 -54.64 49.68 -56 49 C-55.67 46.36 -55.34 43.72 -55 41 C-54.34 41 -53.68 41 -53 41 C-53 39.68 -53 38.36 -53 37 C-52.34 37 -51.68 37 -51 37 C-50.34 35.68 -49.68 34.36 -49 33 C-48.34 33 -47.68 33 -47 33 C-47 32.34 -47 31.68 -47 31 C-46.34 31 -45.68 31 -45 31 C-45 30.34 -45 29.68 -45 29 C-44.34 29 -43.68 29 -43 29 C-43 28.34 -43 27.68 -43 27 C-41.68 27 -40.36 27 -39 27 C-39 26.34 -39 25.68 -39 25 C-38.34 25 -37.68 25 -37 25 C-37 24.34 -37 23.68 -37 23 C-36.29875 22.83886719 -35.5975 22.67773438 -34.875 22.51171875 C-27.2542657 20.32697019 -24.35647579 17.39715963 -20.1171875 10.8359375 C-15.45999769 4.59770908 -7.95858295 -2.03081082 0 0 Z " fill="#3587FB" transform="translate(95,193)"/>
<path d="M0 0 C0 4.21529694 -1.94417507 6.96246013 -3.90625 10.625 C-5.20915007 13.01836288 -5.20915007 13.01836288 -5 16 C-4.16597656 15.46890625 -3.33195312 14.9378125 -2.47265625 14.390625 C10.04361533 6.50033755 10.04361533 6.50033755 17 4 C17.99386719 3.64164063 18.98773438 3.28328125 20.01171875 2.9140625 C25.22740844 1.46464099 30.56623782 1.71043269 35.9375 1.75 C37.50661133 1.73839844 37.50661133 1.73839844 39.10742188 1.7265625 C45.09041143 1.74160459 50.270192 2.2624409 56 4 C51.7172219 6.2291086 47.24790044 7.9687128 42.77734375 9.78125 C39.87032389 10.96107156 39.87032389 10.96107156 37 13 C38.35931641 12.76023437 38.35931641 12.76023437 39.74609375 12.515625 C61.9907235 9.36574522 83.37564855 12.21899485 102.01171875 25.078125 C104.0660935 26.66486342 106.06037906 28.2758925 108 30 C103.90996141 31.14982602 99.96822949 31.11094256 95.75 31.0625 C95.00492188 31.05798828 94.25984375 31.05347656 93.4921875 31.04882812 C91.6614236 31.03709246 89.83070127 31.0191585 88 31 C88 31.33 88 31.66 88 32 C88.78761719 32.1959375 89.57523438 32.391875 90.38671875 32.59375 C99.11444542 34.99000158 106.89002139 38.27624363 114 44 C114.9609375 46.0703125 114.9609375 46.0703125 115 48 C112.51755522 52.39201768 109.37759495 56.26686874 106 60 C105.34 60 104.68 60 104 60 C104 60.66 104 61.32 104 62 C105.98567708 61.93489583 107.97135417 61.86979167 109.95703125 61.8046875 C112 62 112 62 115 64 C114.34 64 113.68 64 113 64 C112.73832031 64.721875 112.47664062 65.44375 112.20703125 66.1875 C110.96570001 69.07992231 109.46838753 71.40961814 107.6875 74 C101.42298724 83.73329256 98.33894326 94.71882965 95.05444336 105.72851562 C94.81604736 106.51291016 94.57765137 107.29730469 94.33203125 108.10546875 C94.12296143 108.80824951 93.9138916 109.51103027 93.69848633 110.23510742 C93 112 93 112 91 114 C91.16298584 113.03956787 91.32597168 112.07913574 91.49389648 111.08959961 C92.13541814 106.57631687 92.12565947 102.11754367 92.09765625 97.56640625 C92.0962413 96.68846909 92.09482635 95.81053192 92.09336853 94.9059906 C92.08780821 92.12479118 92.07526321 89.34367474 92.0625 86.5625 C92.05747987 84.66731888 92.05291786 82.77213648 92.04882812 80.87695312 C92.0378518 76.25127052 92.02061482 71.62564929 92 67 C91.39599365 66.80446533 90.7919873 66.60893066 90.16967773 66.4074707 C89.36989502 66.14538818 88.5701123 65.88330566 87.74609375 65.61328125 C86.9564624 65.35587158 86.16683105 65.09846191 85.35327148 64.83325195 C83.18090649 64.0640558 81.13882094 63.18312667 79.0625 62.1875 C55.78605744 51.62953393 26.7997293 47.0536993 2 55 C-2.3547398 56.84220006 -6.52764717 58.98694426 -10.671875 61.2578125 C-14 63 -14 63 -18 64 C-19.98 60.04 -21.96 56.08 -24 52 C-23.525625 53.835625 -23.05125 55.67125 -22.5625 57.5625 C-20.72501669 64.67276149 -19.84781692 71.46275611 -19.9375 78.8046875 C-19.94128662 79.52810333 -19.94507324 80.25151917 -19.94897461 80.99685669 C-19.96514189 84.05771139 -19.99326635 87.11842625 -20.02050781 90.17919922 C-20.12157345 102.12023652 -20.12157345 102.12023652 -19 114 C-21.11931814 111.88068186 -21.50015223 110.90180042 -22.33203125 108.10546875 C-22.68938354 106.9292395 -22.68938354 106.9292395 -23.05395508 105.72924805 C-23.42943481 104.47108276 -23.42943481 104.47108276 -23.8125 103.1875 C-27.67519036 90.71873086 -31.74542442 79.72185664 -39.109375 68.8984375 C-41 66 -41 66 -42 63 C-38.7 63.33 -35.4 63.66 -32 64 C-32.3609375 63.28199219 -32.721875 62.56398437 -33.09375 61.82421875 C-36.24873287 54.78685419 -37.49395951 48.91915957 -37.5 41.25 C-37.50870117 40.08150513 -37.50870117 40.08150513 -37.51757812 38.8894043 C-37.39675022 33.17001536 -36.06597537 28.31656966 -34 23 C-33.67 23 -33.34 23 -33 23 C-32.87882812 23.67546875 -32.75765625 24.3509375 -32.6328125 25.046875 C-32.46523437 25.93890625 -32.29765625 26.8309375 -32.125 27.75 C-31.96257812 28.63171875 -31.80015625 29.5134375 -31.6328125 30.421875 C-31.03203736 32.86947744 -30.22002883 34.80599857 -29 37 C-28.78085938 36.16597656 -28.56171875 35.33195312 -28.3359375 34.47265625 C-24.05958825 19.29683147 -15.69871285 8.76229078 -1.87109375 0.99609375 C-1.25363281 0.66738281 -0.63617188 0.33867187 0 0 Z " fill="#6E3010" transform="translate(106,23)"/>
<path d="M0 0 C2.45468424 0.82362893 4.88382453 1.66956783 7.3125 2.5625 C7.95767578 2.79646484 8.60285156 3.03042969 9.26757812 3.27148438 C10.84621219 3.84447007 12.42327026 4.42179464 14 5 C13.86078125 6.13695312 13.7215625 7.27390625 13.578125 8.4453125 C12.91973722 16.23411622 12.69498012 22.49652952 17.83618164 28.7668457 C19.96809325 31.07427679 22.15507885 33.30315278 24.42675781 35.47314453 C26.69448111 37.67400448 28.74040435 40.05351451 30.8125 42.4375 C34.42179083 46.41948934 38.15593283 50.24556134 42 54 C43.33333333 55.33333333 44.66666667 56.66666667 46 58 C50.87419602 56.81837672 53.05246374 53.89085355 56.12109375 50.19921875 C57.9437734 48.065812 59.85603295 46.13421773 61.875 44.1875 C65.84735768 40.27684885 69.33890275 36.05643204 72.82421875 31.7109375 C75 29 75 29 77.75 26.25 C80.76578609 21.89386454 80.57947303 18.77552588 80.3125 13.625 C80.28994141 12.79355469 80.26738281 11.96210938 80.24414062 11.10546875 C80.18563654 9.06952647 80.09596795 7.03452055 80 5 C82.57861025 3.96555751 85.16174635 2.94727716 87.75 1.9375 C88.47960937 1.64294922 89.20921875 1.34839844 89.9609375 1.04492188 C91.02441406 0.6340332 91.02441406 0.6340332 92.109375 0.21484375 C92.75874023 -0.04176025 93.40810547 -0.29836426 94.07714844 -0.56274414 C97.84713425 -1.42003777 100.67460691 0.21273633 103.8125 2.1875 C110.29027791 6.40166778 115.10782198 10.48681278 118.95703125 17.265625 C120.00442765 19.16547572 120.00442765 19.16547572 122 21 C121.01 21.33 120.02 21.66 119 22 C114.80232622 23.78696153 112.22570433 26.59136387 109.12109375 29.859375 C105.74300723 33.26856729 102.06427125 36.43477949 98 39 C97.01 39 96.02 39 95 39 C95 39.66 95 40.32 95 41 C93.68 41.33 92.36 41.66 91 42 C91 42.66 91 43.32 91 44 C89.05078125 45.4453125 89.05078125 45.4453125 86.3125 47.125 C85.301875 47.74761719 84.29125 48.37023437 83.25 49.01171875 C82.1775 49.66785156 81.105 50.32398438 80 51 C78.989375 51.64582031 77.97875 52.29164063 76.9375 52.95703125 C70.94965789 56.75182619 64.8783451 60.22315348 58.5625 63.4375 C57.90032471 63.77966553 57.23814941 64.12183105 56.5559082 64.47436523 C52.67830204 66.40457107 49.35409255 68.0380033 45 68 C41.59476019 66.67912241 38.48033973 64.93311663 35.3125 63.125 C33.62197443 62.18851263 31.93060353 61.25354914 30.23828125 60.3203125 C29.49618408 59.90023926 28.75408691 59.48016602 27.98950195 59.04736328 C25.88912768 57.87298147 25.88912768 57.87298147 23 57 C23 56.34 23 55.68 23 55 C22.17822266 54.85691406 22.17822266 54.85691406 21.33984375 54.7109375 C18.36790746 53.80794517 16.15596754 52.32999807 13.5625 50.625 C10.78548196 48.80970309 8.04472407 47.02515345 5.15234375 45.3984375 C4.44207031 44.93695313 3.73179688 44.47546875 3 44 C3 43.34 3 42.68 3 42 C1.68 41.67 0.36 41.34 -1 41 C-1 40.34 -1 39.68 -1 39 C-1.84691406 38.86078125 -1.84691406 38.86078125 -2.7109375 38.71875 C-7.51876657 37.20912449 -11.20559726 33.20236827 -15 30 C-15.96035156 29.22269531 -16.92070313 28.44539063 -17.91015625 27.64453125 C-19.28494141 26.49017578 -19.28494141 26.49017578 -20.6875 25.3125 C-21.96173828 24.25482422 -21.96173828 24.25482422 -23.26171875 23.17578125 C-25 21 -25 21 -24.953125 18.50390625 C-21.49762816 9.42614612 -10.28794054 -2.62519862 0 0 Z " fill="#434039" transform="translate(95,193)"/>
<path d="M0 0 C0.99 0.495 0.99 0.495 2 1 C2 1.66 2 2.32 2 3 C2.66 3 3.32 3 4 3 C4 3.66 4 4.32 4 5 C4.55816406 5.2578125 5.11632812 5.515625 5.69140625 5.78125 C9.19036424 7.62841564 12.27331619 10.01546405 15.46484375 12.34375 C20.72106163 15.77770436 25.16891592 16.33962449 31.375 16.3125 C32.10460937 16.32861328 32.83421875 16.34472656 33.5859375 16.36132812 C40.92513542 16.36788098 46.31694259 13.75389022 52.25 9.5 C53.08015625 8.9121875 53.9103125 8.324375 54.765625 7.71875 C56.98916068 6.09312127 56.98916068 6.09312127 58.671875 4.28125 C60 3 60 3 62 3 C62 5.64 62 8.28 62 11 C64.31 11 66.62 11 69 11 C67.68 11.66 66.36 12.32 65 13 C65.13019531 14.22976562 65.26039063 15.45953125 65.39453125 16.7265625 C65.5352804 18.35925268 65.67452401 19.99207313 65.8125 21.625 C65.90208984 22.43324219 65.99167969 23.24148437 66.08398438 24.07421875 C66.42395906 28.47599625 66.41197909 31.10562509 63.51171875 34.5859375 C62.68285156 35.38257813 61.85398438 36.17921875 61 37 C60.34 36.01 59.68 35.02 59 34 C57.88625 34.495 56.7725 34.99 55.625 35.5 C47.56320501 38.48584999 39.71798639 37.52710677 32 34 C28.54503847 32.18287437 25.12776369 30.34419032 22 28 C22 27.34 22 26.68 22 26 C21.45859375 25.7834375 20.9171875 25.566875 20.359375 25.34375 C17.18354656 23.53500003 14.79271919 21.08276201 12.25 18.5 C11.74339844 18.00113281 11.23679687 17.50226563 10.71484375 16.98828125 C7 13.25341139 7 13.25341139 7 11 C6.34 11 5.68 11 5 11 C4.54625 10.030625 4.0925 9.06125 3.625 8.0625 C2.34213779 4.92920418 2.34213779 4.92920418 0 4 C0 2.68 0 1.36 0 0 Z " fill="#DBBE84" transform="translate(110,185)"/>
<path d="M0 0 C0.33 0.99 0.66 1.98 1 3 C3.64 3.33 6.28 3.66 9 4 C9 3.01 9 2.02 9 1 C9.66 1 10.32 1 11 1 C11 1.66 11 2.32 11 3 C12.32 3.33 13.64 3.66 15 4 C7.81511429 8.59832685 0.4454307 12.84227072 -7 17 C-7.96164063 17.54785156 -8.92328125 18.09570312 -9.9140625 18.66015625 C-16.13006347 22.03106916 -16.13006347 22.03106916 -20.5 21.875 C-23 21 -23 21 -25 20 C-25 19.34 -25 18.68 -25 18 C-24.34 18 -23.68 18 -23 18 C-23 17.01 -23 16.02 -23 15 C-23.66 15 -24.32 15 -25 15 C-25 14.34 -25 13.68 -25 13 C-22.625 12.375 -22.625 12.375 -20 12 C-18 14 -18 14 -18 17 C-17.34 15.68 -16.68 14.36 -16 13 C-15.01 13 -14.02 13 -13 13 C-12.9175 12.4225 -12.835 11.845 -12.75 11.25 C-10.92676603 5.7802981 -5.74651291 3.59714857 -1 1 C-0.67 0.67 -0.34 0.34 0 0 Z " fill="#3D3F42" transform="translate(161,239)"/>
<path d="M0 0 C1.32 0 2.64 0 4 0 C4 3.3 4 6.6 4 10 C4.66 10 5.32 10 6 10 C6.66 8.68 7.32 7.36 8 6 C8.93423645 9.01031744 9.04449911 9.86650268 8 13 C7.16384781 25.10031676 7.92911523 34.8983844 13 46 C11.54119891 45.85892253 10.08296449 45.71197585 8.625 45.5625 C7.81289062 45.48128906 7.00078125 45.40007812 6.1640625 45.31640625 C4 45 4 45 2 44 C2 43.34 2 42.68 2 42 C3.98 42 5.96 42 8 42 C8 40.68 8 39.36 8 38 C6.02 38 4.04 38 2 38 C2 36.68 2 35.36 2 34 C2.99 34 3.98 34 5 34 C4.67 33.34 4.34 32.68 4 32 C3.92818179 29.28239892 3.90700494 26.59140612 3.9375 23.875 C3.94201172 23.12089844 3.94652344 22.36679688 3.95117188 21.58984375 C3.96296501 19.72652873 3.98090058 17.86325445 4 16 C3.34 16 2.68 16 2 16 C2 21.28 2 26.56 2 32 C1.34 32 0.68 32 0 32 C0 32.66 0 33.32 0 34 C-1.32 34 -2.64 34 -4 34 C-4 33.34 -4 32.68 -4 32 C-3.34 32 -2.68 32 -2 32 C-2 26.72 -2 21.44 -2 16 C-1.34 16 -0.68 16 0 16 C0 10.72 0 5.44 0 0 Z " fill="#FDAE36" transform="translate(62,42)"/>
<path d="M0 0 C-0.33 0.66 -0.66 1.32 -1 2 C-0.34 2 0.32 2 1 2 C0.67 2.99 0.34 3.98 0 5 C-0.66 5 -1.32 5 -2 5 C-2 5.66 -2 6.32 -2 7 C-3.32 7.33 -4.64 7.66 -6 8 C-6 8.99 -6 9.98 -6 11 C-5.30132812 10.71125 -4.60265625 10.4225 -3.8828125 10.125 C-2.97273438 9.75375 -2.06265625 9.3825 -1.125 9 C-0.22007813 8.62875 0.68484375 8.2575 1.6171875 7.875 C4 7 4 7 6 7 C6 6.34 6 5.68 6 5 C14.14834096 2.76684946 21.76437562 1.70038309 30.1875 1.6875 C31.01290283 1.68234375 31.83830566 1.6771875 32.6887207 1.671875 C36.61615551 1.71749075 38.66547855 1.7769857 42 4 C41.34104736 4.0093457 40.68209473 4.01869141 40.00317383 4.02832031 C22.52937523 4.33956234 9.4682223 5.54844521 -5.3203125 15.29296875 C-8 17 -8 17 -11 18 C-11.33 18.99 -11.66 19.98 -12 21 C-13.21527577 17.35417269 -12.65504434 16.51096991 -11.1875 13.0625 C-10.83042969 12.20785156 -10.47335938 11.35320313 -10.10546875 10.47265625 C-9.12595669 8.28173351 -8.09483961 6.13518494 -7 4 C-8.65 4.66 -10.3 5.32 -12 6 C-11.77734375 4.11328125 -11.77734375 4.11328125 -11 2 C-9.00390625 0.91796875 -9.00390625 0.91796875 -6.5625 0.1875 C-5.75941406 -0.06644531 -4.95632812 -0.32039063 -4.12890625 -0.58203125 C-2 -1 -2 -1 0 0 Z " fill="#F6B040" transform="translate(112,21)"/>
<path d="M0 0 C0.71607422 0.00064453 1.43214844 0.00128906 2.16992188 0.00195312 C5.59757923 0.03054341 8.78692328 0.11844754 12.0625 1.1875 C12.0625 1.8475 12.0625 2.5075 12.0625 3.1875 C10.7425 3.5175 9.4225 3.8475 8.0625 4.1875 C8.0625 5.1775 8.0625 6.1675 8.0625 7.1875 C10.0425 7.1875 12.0225 7.1875 14.0625 7.1875 C14.0625 8.5075 14.0625 9.8275 14.0625 11.1875 C15.3825 11.1875 16.7025 11.1875 18.0625 11.1875 C20.375 12.875 20.375 12.875 22.0625 15.1875 C21.8125 17.9375 21.8125 17.9375 21.0625 20.1875 C20.0725 20.5175 19.0825 20.8475 18.0625 21.1875 C16.92704438 23.48284258 16.92704438 23.48284258 16.0625 26.1875 C15.0625 28.6875 15.0625 28.6875 14.0625 31.1875 C15.7125 31.1875 17.3625 31.1875 19.0625 31.1875 C20.125 33.0625 20.125 33.0625 21.0625 35.1875 C20.7325 35.8475 20.4025 36.5075 20.0625 37.1875 C18.7425 36.8575 17.4225 36.5275 16.0625 36.1875 C16.0625 35.1975 16.0625 34.2075 16.0625 33.1875 C13.4225 32.8575 10.7825 32.5275 8.0625 32.1875 C8.0625 30.1875 8.0625 30.1875 10.3125 27.875 C11.22 26.988125 12.1275 26.10125 13.0625 25.1875 C16.40659901 21.56472607 17.60408403 19.11547169 18.0625 14.1875 C17.4025 13.960625 16.7425 13.73375 16.0625 13.5 C13.59507233 12.42050039 11.91037499 11.39827993 9.75 9.875 C3.53412915 5.8352851 -3.87511681 4.20165055 -10.9375 2.1875 C-7.20653192 -0.29981205 -4.31028041 -0.07331721 0 0 Z " fill="#F0B450" transform="translate(201.9375,52.8125)"/>
<path d="M0 0 C0.66 0.33 1.32 0.66 2 1 C0.7260411 3.03833424 -0.61061923 5.03852126 -2 7 C-2.66 7 -3.32 7 -4 7 C-4.433125 7.86625 -4.433125 7.86625 -4.875 8.75 C-5.91666667 10.83333333 -6.95833333 12.91666667 -8 15 C-7.34 15.66 -6.68 16.32 -6 17 C-5.875 20.125 -5.875 20.125 -6 23 C-5.34 23 -4.68 23 -4 23 C-3.67 24.32 -3.34 25.64 -3 27 C-5.75 27.25 -5.75 27.25 -9 27 C-11.375 25 -11.375 25 -13 23 C-14.0828125 23.8971875 -14.0828125 23.8971875 -15.1875 24.8125 C-18 27 -18 27 -20.625 28.4375 C-23.40783778 30.26831433 -24.35232989 32.15402436 -26 35 C-27.485 35.495 -27.485 35.495 -29 36 C-29 36.99 -29 37.98 -29 39 C-29.66 39 -30.32 39 -31 39 C-31 38.34 -31 37.68 -31 37 C-31.66 36.67 -32.32 36.34 -33 36 C-32.34 36 -31.68 36 -31 36 C-30.67 35.01 -30.34 34.02 -30 33 C-28.38279196 31.28530069 -26.7066961 29.62565187 -25 28 C-17.47679818 20.66592895 -10.49059342 13.28335813 -4 5 C-2.66779519 3.33243114 -1.33478621 1.66550333 0 0 Z " fill="#444036" transform="translate(174,217)"/>
<path d="M0 0 C1.41750563 0.11509661 2.83401169 0.24253658 4.25 0.375 C5.03890625 0.44460937 5.8278125 0.51421875 6.640625 0.5859375 C9.085877 1.01507113 10.84836903 1.78600638 13 3 C13 3.66 13 4.32 13 5 C11.3603125 4.5359375 11.3603125 4.5359375 9.6875 4.0625 C4.33279817 3.41804031 0.97778551 5.79178269 -3.31640625 8.7578125 C-6.8416505 11.70321308 -9.54664275 14.96569794 -12.24609375 18.66796875 C-15.33878452 22.78007653 -18.0078878 25.50236634 -23 27 C-24.32 27 -25.64 27 -27 27 C-26.67 25.68 -26.34 24.36 -26 23 C-24.35 23 -22.7 23 -21 23 C-21 22.34 -21 21.68 -21 21 C-20.34 21 -19.68 21 -19 21 C-19 20.34 -19 19.68 -19 19 C-20.98 19 -22.96 19 -25 19 C-25 17.68 -25 16.36 -25 15 C-24.34 15 -23.68 15 -23 15 C-23 15.66 -23 16.32 -23 17 C-21.02 17 -19.04 17 -17 17 C-17 15.68 -17 14.36 -17 13 C-15.02 12.67 -13.04 12.34 -11 12 C-11 11.01 -11 10.02 -11 9 C-9.02 9 -7.04 9 -5 9 C-5 8.34 -5 7.68 -5 7 C-4.34 7 -3.68 7 -3 7 C-3 6.34 -3 5.68 -3 5 C-2.34 5 -1.68 5 -1 5 C-0.67 3.35 -0.34 1.7 0 0 Z " fill="#F4B426" transform="translate(85,189)"/>
<path d="M0 0 C1.65 0 3.3 0 5 0 C5 1.32 5 2.64 5 4 C3.02 4.99 3.02 4.99 1 6 C5.62 6 10.24 6 15 6 C15 6.66 15 7.32 15 8 C18.3 8 21.6 8 25 8 C25 8.66 25 9.32 25 10 C30.32212148 10.79265639 35.6496441 11.42978066 41 12 C40.67 12.66 40.34 13.32 40 14 C34.29481669 14.31695463 29.90121449 13.58942852 24.4921875 11.75390625 C19.77649541 10.32737244 15.17271622 9.87296563 10.26171875 9.8671875 C8.65973633 9.86525391 8.65973633 9.86525391 7.02539062 9.86328125 C5.92388672 9.86714844 4.82238281 9.87101562 3.6875 9.875 C2.05264648 9.86919922 2.05264648 9.86919922 0.38476562 9.86328125 C-5.82763489 9.87075257 -11.84107601 10.18227142 -18 11 C-14.29750507 7.79256559 -10.65686427 5.73638412 -6.1875 3.75 C-4.44533203 2.96882813 -4.44533203 2.96882813 -2.66796875 2.171875 C-1.78753906 1.78515625 -0.90710938 1.3984375 0 1 C0 0.67 0 0.34 0 0 Z " fill="#F9B94C" transform="translate(159,26)"/>
<path d="M0 0 C-3.08115207 5.89437788 -6.95005222 11.05754344 -10.9765625 16.328125 C-12.37599395 18.1760229 -13.71420362 20.07130544 -15 22 C-16.32594359 16.03325384 -16.0884587 10.07416385 -16 4 C-14.274773 3.32320342 -12.54461061 2.65898 -10.8125 2 C-9.84957031 1.62875 -8.88664063 1.2575 -7.89453125 0.875 C-5.07817642 0.02363228 -2.91835561 -0.17072647 0 0 Z " fill="#241E18" transform="translate(191,194)"/>
<path d="M0 0 C5.45479185 0.56820748 9.91059256 1.94637945 15 4 C15.05423638 5.91635217 15.09289963 7.83314925 15.125 9.75 C15.14820312 10.81734375 15.17140625 11.8846875 15.1953125 12.984375 C15.00487687 15.92470106 14.52670104 17.52361878 13 20 C10.33333333 16.66666667 7.66666667 13.33333333 5 10 C4.2678125 9.1234375 3.535625 8.246875 2.78125 7.34375 C0.86558864 4.82314294 0.35566462 3.11206542 0 0 Z " fill="#21201B" transform="translate(94,194)"/>
<path d="M0 0 C3.29240875 2.79854744 5.03562946 6.20673275 7 10 C7 10.99 7 11.98 7 13 C8.26457031 12.33291016 8.26457031 12.33291016 9.5546875 11.65234375 C10.65039062 11.08644531 11.74609375 10.52054688 12.875 9.9375 C13.96554688 9.36902344 15.05609375 8.80054687 16.1796875 8.21484375 C17.11039063 7.81394531 18.04109375 7.41304688 19 7 C19.66 7.33 20.32 7.66 21 8 C21 8.66 21 9.32 21 10 C18.69 10.33 16.38 10.66 14 11 C14 11.99 14 12.98 14 14 C11.36 14.33 8.72 14.66 6 15 C6.16242188 15.50789063 6.32484375 16.01578125 6.4921875 16.5390625 C7.16979065 19.82283164 7.14679088 23.03827207 7.125 26.375 C7.12306641 27.09872803 7.12113281 27.82245605 7.11914062 28.56811523 C7.04494579 38.38759562 6.51436978 48.19551011 6 58 C3.59677447 54.26918855 3.81166271 51.05628304 3.91015625 46.69921875 C3.93062086 45.2311237 3.95079302 43.76302455 3.97070312 42.29492188 C4.01366541 40.00918271 4.0616312 37.72371817 4.11645508 35.43823242 C4.35260195 24.81627628 3.47207976 15.35158311 1 5 C0.65922481 3.334839 0.32285947 1.66872726 0 0 Z " fill="#F4D6A6" transform="translate(81,74)"/>
<path d="M0 0 C0.93423645 3.01031744 1.04449911 3.86650268 0 7 C-0.83615219 19.10031676 -0.07088477 28.8983844 5 40 C3.54119891 39.85892253 2.08296449 39.71197585 0.625 39.5625 C-0.18710938 39.48128906 -0.99921875 39.40007812 -1.8359375 39.31640625 C-4 39 -4 39 -6 38 C-6 37.34 -6 36.68 -6 36 C-4.02 36 -2.04 36 0 36 C0 34.68 0 33.36 0 32 C-1.98 32 -3.96 32 -6 32 C-6 30.68 -6 29.36 -6 28 C-5.01 28 -4.02 28 -3 28 C-3.33 27.34 -3.66 26.68 -4 26 C-4.07181821 23.28239892 -4.09299506 20.59140612 -4.0625 17.875 C-4.05798828 17.12089844 -4.05347656 16.36679688 -4.04882812 15.58984375 C-4.03703499 13.72652873 -4.01909942 11.86325445 -4 10 C-3.34 10 -2.68 10 -2 10 C-2.061875 8.081875 -2.061875 8.081875 -2.125 6.125 C-2.1953125 3.9453125 -2.1953125 3.9453125 -2 2 C-1.34 1.34 -0.68 0.68 0 0 Z " fill="#F9B33F" transform="translate(70,48)"/>
<path d="M0 0 C0.66 0 1.32 0 2 0 C2.33 5.94 2.66 11.88 3 18 C2.01 18 1.02 18 0 18 C0 19.32 0 20.64 0 22 C1.98 22 3.96 22 6 22 C6 23.32 6 24.64 6 26 C4.02 26 2.04 26 0 26 C0 29.3 0 32.6 0 36 C-0.66 36 -1.32 36 -2 36 C-2 34.35 -2 32.7 -2 31 C-2.66 31 -3.32 31 -4 31 C-4.84454356 27.62182575 -5.10844919 25.32534757 -4 22 C-4.66 22 -5.32 22 -6 22 C-6 21.34 -6 20.68 -6 20 C-5.34 20 -4.68 20 -4 20 C-4 19.34 -4 18.68 -4 18 C-3.34 18 -2.68 18 -2 18 C-2 17.34 -2 16.68 -2 16 C-1.34 16 -0.68 16 0 16 C0 10.72 0 5.44 0 0 Z " fill="#F9B227" transform="translate(64,58)"/>
<path d="M0 0 C0.66 0 1.32 0 2 0 C2 0.99 2 1.98 2 3 C3.32 3.33 4.64 3.66 6 4 C6 4.66 6 5.32 6 6 C7.65 6 9.3 6 11 6 C10.67 7.32 10.34 8.64 10 10 C7.36 10 4.72 10 2 10 C2 10.66 2 11.32 2 12 C2.721875 12.04125 3.44375 12.0825 4.1875 12.125 C8.23043784 13.38280288 9.43348183 15.67046292 12 19 C12.66 19.33 13.32 19.66 14 20 C14 20.66 14 21.32 14 22 C12.68 21.67 11.36 21.34 10 21 C10 20.34 10 19.68 10 19 C8.68 18.67 7.36 18.34 6 18 C6 17.34 6 16.68 6 16 C5.14148438 15.8453125 5.14148438 15.8453125 4.265625 15.6875 C1.61367934 14.88277166 -0.05990009 13.68718808 -2.25 12 C-2.95640625 11.46375 -3.6628125 10.9275 -4.390625 10.375 C-4.92171875 9.92125 -5.4528125 9.4675 -6 9 C-6 8.67 -6 8.34 -6 8 C-4.02 8 -2.04 8 0 8 C0 6.68 0 5.36 0 4 C-0.66 4 -1.32 4 -2 4 C-2 3.34 -2 2.68 -2 2 C-1.34 2 -0.68 2 0 2 C0 1.34 0 0.68 0 0 Z " fill="#3C4342" transform="translate(88,216)"/>
<path d="M0 0 C3.88536171 0.5638932 6.45224086 1.66689444 9.6875 3.875 C10.45449219 4.38804688 11.22148437 4.90109375 12.01171875 5.4296875 C14 7 14 7 16 10 C7.42 10 -1.16 10 -10 10 C-9.34 9.67 -8.68 9.34 -8 9 C-8 8.34 -8 7.68 -8 7 C-6.02 6.67 -4.04 6.34 -2 6 C-2 5.34 -2 4.68 -2 4 C-0.02 3.67 1.96 3.34 4 3 C2.68 2.01 1.36 1.02 0 0 Z " fill="#6D2F0E" transform="translate(198,44)"/>
<path d="M0 0 C6.99879608 6.17540831 12.07706252 15.16241257 15 24 C15 25.32 15 26.64 15 28 C14.36191406 28.06058594 13.72382812 28.12117188 13.06640625 28.18359375 C11.82697266 28.30927734 11.82697266 28.30927734 10.5625 28.4375 C9.32693359 28.55931641 9.32693359 28.55931641 8.06640625 28.68359375 C6.01337975 28.78930815 6.01337975 28.78930815 5 30 C4.76924918 31.34747084 4.58846937 32.70377565 4.4375 34.0625 C4.293125 35.361875 4.14875 36.66125 4 38 C3.34 38 2.68 38 2 38 C2 34.04 2 30.08 2 26 C4.97 26 7.94 26 11 26 C11.33 24.68 11.66 23.36 12 22 C11.34 22 10.68 22 10 22 C10 20.02 10 18.04 10 16 C9.34 16 8.68 16 8 16 C7.566875 15.0925 7.13375 14.185 6.6875 13.25 C5.16060591 10.07459389 5.16060591 10.07459389 3.3125 7.8125 C2 6 2 6 2 3 C1.34 3 0.68 3 0 3 C0 2.01 0 1.02 0 0 Z " fill="#F1AE3C" transform="translate(64,88)"/>
<path d="M0 0 C0.33 0 0.66 0 1 0 C1.20140476 3.62528568 0.85776765 5.86501708 -1 9 C-1.66 9 -2.32 9 -3 9 C-3 10.32 -3 11.64 -3 13 C-4.32 13 -5.64 13 -7 13 C-7 13.66 -7 14.32 -7 15 C-8.98 15 -10.96 15 -13 15 C-13.3125 12.8125 -13.3125 12.8125 -13 10 C-9.59741913 5.77255105 -5.69366629 3.52735877 -1 1 C-0.67 0.67 -0.34 0.34 0 0 Z " fill="#42423C" transform="translate(161,239)"/>
<path d="M0 0 C3.96 0 7.92 0 12 0 C12 0.66 12 1.32 12 2 C10.68 2 9.36 2 8 2 C8 2.66 8 3.32 8 4 C7.34 4 6.68 4 6 4 C6 4.66 6 5.32 6 6 C5.34 6 4.68 6 4 6 C4 6.66 4 7.32 4 8 C2.125 10.125 2.125 10.125 0 12 C-0.66 12 -1.32 12 -2 12 C-2 13.32 -2 14.64 -2 16 C-2.66 16 -3.32 16 -4 16 C-4.33 18.31 -4.66 20.62 -5 23 C-5.33 23 -5.66 23 -6 23 C-6 19.37 -6 15.74 -6 12 C-5.34 12 -4.68 12 -4 12 C-4 10.68 -4 9.36 -4 8 C-3.01 8 -2.02 8 -1 8 C-0.67 7.34 -0.34 6.68 0 6 C0.66 6 1.32 6 2 6 C2 5.01 2 4.02 2 3 C1.34 2.67 0.68 2.34 0 2 C0 1.34 0 0.68 0 0 Z " fill="#CFB05D" transform="translate(44,218)"/>
<path d="M0 0 C1.65 1.32 3.3 2.64 5 4 C5.66 3.34 6.32 2.68 7 2 C7.06058594 3.19496094 7.12117188 4.38992187 7.18359375 5.62109375 C7.79215577 17.33528961 7.79215577 17.33528961 9 29 C5.90214436 25.90214436 5.21772959 21.99914593 3.9375 17.875 C3.66873047 17.04484375 3.39996094 16.2146875 3.12304688 15.359375 C1.50845735 10.22167864 0.50161088 5.36290151 0 0 Z " fill="#602C0D" transform="translate(78,108)"/>
<path d="M0 0 C2.01822917 0.06510417 4.03645833 0.13020833 6.0546875 0.1953125 C6.0546875 0.8553125 6.0546875 1.5153125 6.0546875 2.1953125 C4.0746875 2.1953125 2.0946875 2.1953125 0.0546875 2.1953125 C0.0546875 3.5153125 0.0546875 4.8353125 0.0546875 6.1953125 C0.7146875 6.1953125 1.3746875 6.1953125 2.0546875 6.1953125 C2.0546875 7.5153125 2.0546875 8.8353125 2.0546875 10.1953125 C1.3946875 10.1953125 0.7346875 10.1953125 0.0546875 10.1953125 C0.0546875 12.8353125 0.0546875 15.4753125 0.0546875 18.1953125 C0.7146875 18.1953125 1.3746875 18.1953125 2.0546875 18.1953125 C1.7246875 19.5153125 1.3946875 20.8353125 1.0546875 22.1953125 C-3.59683827 16.69805477 -4.16874525 11.32890935 -4.2109375 4.3671875 C-3.8549022 1.45607532 -2.98407703 0.29960613 0 0 Z " fill="#F8D185" transform="translate(71.9453125,115.8046875)"/>
<path d="M0 0 C1.41750563 0.11509661 2.83401169 0.24253658 4.25 0.375 C5.03890625 0.44460937 5.8278125 0.51421875 6.640625 0.5859375 C9.085877 1.01507113 10.84836903 1.78600638 13 3 C13 3.66 13 4.32 13 5 C11.3603125 4.5359375 11.3603125 4.5359375 9.6875 4.0625 C4.25700856 3.36677868 0.83109424 6.01213898 -3.5 9.0078125 C-6.54723179 11.43607533 -8.75568028 13.82699626 -11 17 C-11.66 15.68 -12.32 14.36 -13 13 C-12.34 12.34 -11.68 11.68 -11 11 C-11 10.34 -11 9.68 -11 9 C-9.02 9 -7.04 9 -5 9 C-5 8.34 -5 7.68 -5 7 C-4.34 7 -3.68 7 -3 7 C-3 6.34 -3 5.68 -3 5 C-2.34 5 -1.68 5 -1 5 C-0.67 3.35 -0.34 1.7 0 0 Z " fill="#F1B63E" transform="translate(85,189)"/>
<path d="M0 0 C0.33 1.32 0.66 2.64 1 4 C0.34 4 -0.32 4 -1 4 C-1 4.66 -1 5.32 -1 6 C-1.66 6 -2.32 6 -3 6 C-3.33 7.32 -3.66 8.64 -4 10 C-4.99 10 -5.98 10 -7 10 C-7 12.64 -7 15.28 -7 18 C-4.36 18 -1.72 18 1 18 C1 17.34 1 16.68 1 16 C3.97 16 6.94 16 10 16 C3.79513053 20.13657964 -1.77107145 20.25715556 -9 20 C-9.86573744 14.97658521 -9.97536639 11.40696126 -6.99609375 7.109375 C-4.7417258 4.63980135 -2.44506418 2.28011938 0 0 Z " fill="#E7B959" transform="translate(181,176)"/>
<path d="M0 0 C2.66694948 -0.05455124 5.33275498 -0.09393392 8 -0.125 C8.74378906 -0.14175781 9.48757812 -0.15851562 10.25390625 -0.17578125 C15.50548443 -0.22144715 19.9516946 0.54287549 25 2 C21.69815757 3.71472494 18.31468576 5.14690451 14.875 6.5625 C10.89405658 8.1859699 10.89405658 8.1859699 7 10 C7.33 8.35 7.66 6.7 8 5 C8.99 4.67 9.98 4.34 11 4 C11 3.01 11 2.02 11 1 C7.37 1 3.74 1 0 1 C0 0.67 0 0.34 0 0 Z " fill="#69290A" transform="translate(137,25)"/>
<path d="M0 0 C0.33 0 0.66 0 1 0 C1.16789126 2.43742131 1.33436133 4.87492546 1.5 7.3125 C1.54769531 8.00279297 1.59539062 8.69308594 1.64453125 9.40429688 C1.83879489 12.27662359 2 15.12013788 2 18 C2.88214887 20.88214887 2.88214887 20.88214887 4 23 C4.66 22.67 5.32 22.34 6 22 C6.66 24.31 7.32 26.62 8 29 C8.66 29 9.32 29 10 29 C12.125 30.875 12.125 30.875 14 33 C14 33.66 14 34.32 14 35 C10.46554194 33.52467934 8.48430323 31.57453208 6 28.6875 C5.34 27.92824219 4.68 27.16898438 4 26.38671875 C3.34 25.59910156 2.68 24.81148437 2 24 C1.25363281 23.22269531 0.50726563 22.44539063 -0.26171875 21.64453125 C-2.5639167 18.14208628 -2.26107981 16.12160462 -1.8125 12 C-1.63654297 10.205625 -1.63654297 10.205625 -1.45703125 8.375 C-1.07419297 5.54788658 -0.60684961 2.78623127 0 0 Z " fill="#EBDDAD" transform="translate(110,197)"/>
<path d="M0 0 C1.62463842 -0.05395478 3.24978541 -0.09277195 4.875 -0.125 C5.77992188 -0.14820312 6.68484375 -0.17140625 7.6171875 -0.1953125 C10 0 10 0 12 2 C12.33546255 7.19966951 12.37650833 9.24698333 10 14 C10 10.04 10 6.08 10 2 C8.35 2 6.7 2 5 2 C4.67 3.32 4.34 4.64 4 6 C4.66 6 5.32 6 6 6 C4.79618552 8.49361571 3.54571278 10.68143083 2 13 C1.34 13 0.68 13 0 13 C0 10.66666667 0 8.33333333 0 6 C-0.33 5.01 -0.66 4.02 -1 3 C-0.67 2.01 -0.34 1.02 0 0 Z " fill="#F1D090" transform="translate(204,116)"/>
<path d="M0 0 C0.82540283 -0.00515625 1.65080566 -0.0103125 2.5012207 -0.015625 C6.42865551 0.02999075 8.47797855 0.0894857 11.8125 2.3125 C11.15354736 2.3218457 10.49459473 2.33119141 9.81567383 2.34082031 C-10.05354198 2.19749468 -10.05354198 2.19749468 -28.1875 9.3125 C-30.375 8.9375 -30.375 8.9375 -32.1875 8.3125 C-26.4375 5.3125 -26.4375 5.3125 -24.1875 5.3125 C-24.1875 4.6525 -24.1875 3.9925 -24.1875 3.3125 C-16.03915904 1.07934946 -8.42312438 0.01288309 0 0 Z " fill="#F3B458" transform="translate(142.1875,22.6875)"/>
<path d="M0 0 C1.65 0 3.3 0 5 0 C5.33 1.32 5.66 2.64 6 4 C7.32 4 8.64 4 10 4 C10 5.32 10 6.64 10 8 C11.65 7.67 13.3 7.34 15 7 C15 7.99 15 8.98 15 10 C14.34 10 13.68 10 13 10 C13.33 10.66 13.66 11.32 14 12 C14.039992 13.99960012 14.04346799 16.00047242 14 18 C13.34 18 12.68 18 12 18 C11.34 15.36 10.68 12.72 10 10 C9.34 10 8.68 10 8 10 C8 9.34 8 8.68 8 8 C7.34 8 6.68 8 6 8 C6 7.34 6 6.68 6 6 C5.34 6 4.68 6 4 6 C4 5.34 4 4.68 4 4 C3.34 4 2.68 4 2 4 C2 3.34 2 2.68 2 2 C1.34 2 0.68 2 0 2 C0 1.34 0 0.68 0 0 Z " fill="#D8B251" transform="translate(232,220)"/>
<path d="M0 0 C0.66 0 1.32 0 2 0 C2.33 1.32 2.66 2.64 3 4 C3.33 2.68 3.66 1.36 4 0 C4.66 0.33 5.32 0.66 6 1 C6 1.99 6 2.98 6 4 C7.32 4.33 8.64 4.66 10 5 C10 3.68 10 2.36 10 1 C11.32 1 12.64 1 14 1 C12.5741914 4.45195767 10.90253666 6.1014256 7.875 8.25 C7.15054688 8.77078125 6.42609375 9.2915625 5.6796875 9.828125 C5.12539062 10.21484375 4.57109375 10.6015625 4 11 C2.68 10.34 1.36 9.68 0 9 C0.66 9 1.32 9 2 9 C2 8.01 2 7.02 2 6 C1.34 6 0.68 6 0 6 C0 4.02 0 2.04 0 0 Z " fill="#EECD8C" transform="translate(196,137)"/>
<path d="M0 0 C0.33 0.99 0.66 1.98 1 3 C0.0390625 4.71875 0.0390625 4.71875 -1.375 6.5 C-3.17572611 8.7936623 -4.05600494 10.16801482 -5 13 C-5.66 13 -6.32 13 -7 13 C-6.95875 13.9075 -6.9175 14.815 -6.875 15.75 C-6.99531556 18.8782046 -7.3914708 20.38614006 -9 23 C-6.36 23 -3.72 23 -1 23 C-3 25 -3 25 -5.1640625 25.1953125 C-5.97617188 25.17210938 -6.78828125 25.14890625 -7.625 25.125 C-8.44226563 25.10695313 -9.25953125 25.08890625 -10.1015625 25.0703125 C-10.72804687 25.04710938 -11.35453125 25.02390625 -12 25 C-11.44389276 20.14333009 -9.90973584 16.23754963 -7.6875 11.9375 C-7.39166016 11.33873047 -7.09582031 10.73996094 -6.79101562 10.12304688 C-4.893095 6.38049497 -2.72665229 3.18410389 0 0 Z " fill="#E3AB50" transform="translate(217,91)"/>
<path d="M0 0 C0.66 0 1.32 0 2 0 C2.86689178 2.57967797 3.71873789 5.16276127 4.5625 7.75 C4.80935547 8.47960937 5.05621094 9.20921875 5.31054688 9.9609375 C5.53935547 10.66992188 5.76816406 11.37890625 6.00390625 12.109375 C6.21861572 12.75874023 6.4333252 13.40810547 6.65454102 14.07714844 C7.06008636 16.33444538 6.69296911 17.83473482 6 20 C6 19.34 6 18.68 6 18 C5.34 18 4.68 18 4 18 C4 16.35 4 14.7 4 13 C3.34 13 2.68 13 2 13 C2 11.68 2 10.36 2 9 C1.01 9.495 1.01 9.495 0 10 C-0.33 9.01 -0.66 8.02 -1 7 C-2.65 6.67 -4.3 6.34 -6 6 C-6 4.68 -6 3.36 -6 2 C-4.02 2 -2.04 2 0 2 C0 1.34 0 0.68 0 0 Z " fill="#EDD19B" transform="translate(78,116)"/>
<path d="M0 0 C0.66 0 1.32 0 2 0 C2 0.66 2 1.32 2 2 C2.66 2 3.32 2 4 2 C5.76462683 5.08809695 6 6.23312136 6 10 C6.66 10 7.32 10 8 10 C8 10.99 8 11.98 8 13 C5.29120665 14.35439668 2.99066732 14.06501451 0 14 C0 12.68 0 11.36 0 10 C0.66 10 1.32 10 2 10 C2 8.68 2 7.36 2 6 C1.34 6 0.68 6 0 6 C0 4.02 0 2.04 0 0 Z " fill="#388BE9" transform="translate(238,228)"/>
<path d="M0 0 C4.18423892 3.50897269 8.19588166 7.08060535 12 11 C11.01 11 10.02 11 9 11 C9.33 11.99 9.66 12.98 10 14 C10.66 14.33 11.32 14.66 12 15 C12 15.66 12 16.32 12 17 C10.68 17 9.36 17 8 17 C8 16.34 8 15.68 8 15 C7.34 15 6.68 15 6 15 C6 13.68 6 12.36 6 11 C5.34 11 4.68 11 4 11 C3.67 10.01 3.34 9.02 3 8 C2.34 8 1.68 8 1 8 C1.33 6.35 1.66 4.7 2 3 C1.34 3 0.68 3 0 3 C0 2.01 0 1.02 0 0 Z " fill="#3D89E7" transform="translate(74,217)"/>
<path d="M0 0 C0 3.84759538 -0.99356258 5.72281888 -3 9 C-4.98075027 10.36176581 -6.98079663 11.69593116 -9 13 C-10.03357147 14.64605826 -11.04060332 16.30963442 -12 18 C-12.99 18.33 -13.98 18.66 -15 19 C-15 19.99 -15 20.98 -15 22 C-15.66 22 -16.32 22 -17 22 C-17 21.34 -17 20.68 -17 20 C-17.66 19.67 -18.32 19.34 -19 19 C-18.34 19 -17.68 19 -17 19 C-16.67 18.01 -16.34 17.02 -16 16 C-14.38000817 14.28793048 -12.70426369 12.62820171 -11 11 C-10.0325353 10.03778434 -9.06772493 9.07289314 -8.10546875 8.10546875 C-4.05273438 4.05273438 -4.05273438 4.05273438 0 0 Z " fill="#3F3823" transform="translate(160,234)"/>
<path d="M0 0 C4.29 0.66 8.58 1.32 13 2 C9 5 9 5 6 5 C8.72190685 9.22104999 8.72190685 9.22104999 12 13 C12 13.99 12 14.98 12 16 C12.33 16.99 12.66 17.98 13 19 C12.34 19 11.68 19 11 19 C9.80179216 17.14956573 8.69105018 15.24209738 7.625 13.3125 C5.82626838 10.06765155 4.10042876 7.12491928 1.7734375 4.23046875 C0 2 0 2 0 0 Z " fill="#6D2E09" transform="translate(64,86)"/>
<path d="M0 0 C2.475 0.495 2.475 0.495 5 1 C6.49341969 3.98683937 5.40648676 5.95160978 4.5625 9.125 C4.27503906 10.22070312 3.98757813 11.31640625 3.69140625 12.4453125 C3.46324219 13.28835937 3.23507812 14.13140625 3 15 C2.01 15 1.02 15 0 15 C0 10.05 0 5.1 0 0 Z " fill="#F7B42B" transform="translate(276,170)"/>
<path d="M0 0 C0.33 0 0.66 0 1 0 C1.66 2.97 2.32 5.94 3 9 C3.66 8.01 4.32 7.02 5 6 C4.52960495 13.83991749 1.77062812 20.72071135 -1 28 C-2.09035821 24.72892536 -1.86355509 24.15007515 -1 21 C-0.85701869 19.3413488 -0.75458775 17.6789131 -0.68359375 16.015625 C-0.64169922 15.08105469 -0.59980469 14.14648438 -0.55664062 13.18359375 C-0.51732422 12.21550781 -0.47800781 11.24742188 -0.4375 10.25 C-0.39431641 9.26644531 -0.35113281 8.28289062 -0.30664062 7.26953125 C-0.20077948 4.84648725 -0.09869829 2.4233446 0 0 Z " fill="#542A0C" transform="translate(199,109)"/>
<path d="M0 0 C0.33 0 0.66 0 1 0 C1.125 2.375 1.125 2.375 1 5 C0.34 5.66 -0.32 6.32 -1 7 C-2.32 7 -3.64 7 -5 7 C-5.1546875 7.8971875 -5.1546875 7.8971875 -5.3125 8.8125 C-6.10503854 11.33421352 -6.91591409 12.39685699 -9 14 C-9.99 14 -10.98 14 -12 14 C-12.66 13.34 -13.32 12.68 -14 12 C-13.07316406 11.21753906 -12.14632812 10.43507812 -11.19140625 9.62890625 C-9.98175093 8.60679439 -8.7721166 7.58465769 -7.5625 6.5625 C-6.64500977 5.7880957 -6.64500977 5.7880957 -5.70898438 4.99804688 C-2.78350052 2.5775409 -2.78350052 2.5775409 0 0 Z " fill="#4A89D8" transform="translate(207,219)"/>
<path d="M0 0 C5.08040368 1.23650037 9.66524133 4.02893703 14.21484375 6.5390625 C14.21484375 7.1990625 14.21484375 7.8590625 14.21484375 8.5390625 C12.89484375 8.5390625 11.57484375 8.5390625 10.21484375 8.5390625 C10.21484375 7.8790625 10.21484375 7.2190625 10.21484375 6.5390625 C7.57484375 6.5390625 4.93484375 6.5390625 2.21484375 6.5390625 C2.21484375 5.2190625 2.21484375 3.8990625 2.21484375 2.5390625 C-1.41515625 3.1990625 -5.04515625 3.8590625 -8.78515625 4.5390625 C-6.24478758 1.28739061 -4.24397698 -0.20430524 0 0 Z " fill="#5282BC" transform="translate(217.78515625,213.4609375)"/>
<path d="M0 0 C2.0625 0.4375 2.0625 0.4375 4 1 C4 1.99 4 2.98 4 4 C4.99 3.01 5.98 2.02 7 1 C5.64475824 6.42096702 3.63365987 11.0778687 1 16 C-0.04449911 12.86650268 0.06576355 12.01031744 1 9 C0.01 8.67 -0.98 8.34 -2 8 C-1.125 1.125 -1.125 1.125 0 0 Z " fill="#662B0A" transform="translate(204,98)"/>
<path d="M0 0 C1.32 0.33 2.64 0.66 4 1 C4 1.99 4 2.98 4 4 C3.34 4 2.68 4 2 4 C2 5.32 2 6.64 2 8 C2.66 8 3.32 8 4 8 C3.67 9.32 3.34 10.64 3 12 C-0.66666667 8.33333333 -4.33333333 4.66666667 -8 1 C-5.33333333 1 -2.66666667 1 0 1 C0 0.67 0 0.34 0 0 Z " fill="#37413C" transform="translate(78,212)"/>
<path d="M0 0 C-2 2 -2 2 -4.125 2.25 C-7.90298613 3.2355616 -10.23088394 5.28513513 -13.23046875 7.72265625 C-15 9 -15 9 -17 9 C-17.2475 9.53625 -17.495 10.0725 -17.75 10.625 C-19.30652537 13.5823982 -21.03435673 16.29724051 -23 19 C-23.66 19 -24.32 19 -25 19 C-22.52283382 10.19229802 -14.92739031 4.91807647 -7.6484375 0.15234375 C-4.57335089 -1.18563641 -3.14822188 -0.99447442 0 0 Z " fill="#473514" transform="translate(95,193)"/>
<path d="M0 0 C3.375 -0.125 3.375 -0.125 7 0 C9.7343066 2.7343066 9.95340665 4.76993555 10.09765625 8.578125 C10.08605469 9.45984375 10.07445313 10.3415625 10.0625 11.25 C10.05347656 12.14203125 10.04445313 13.0340625 10.03515625 13.953125 C10.02355469 14.62859375 10.01195313 15.3040625 10 16 C7.71034684 13.21562953 6.50705679 10.9047861 5.5625 7.4375 C4.61435681 4.37116458 4.1990684 3.18769306 1.8125 0.9375 C1.214375 0.628125 0.61625 0.31875 0 0 Z " fill="#F7D484" transform="translate(86,148)"/>
<path d="M0 0 C0.33 0.66 0.66 1.32 1 2 C0.29495443 3.64510633 -0.41619896 5.28797388 -1.1640625 6.9140625 C-2.59588437 10.48692641 -3.27350648 14.23078068 -4 18 C-6.87001054 15.1928938 -8.87211583 13.14927906 -9.12109375 8.96484375 C-9.12460114 6.97615591 -9.0662529 4.98758702 -9 3 C-8.67 3 -8.34 3 -8 3 C-7.34 5.31 -6.68 7.62 -6 10 C-5.34 10 -4.68 10 -4 10 C-3.896875 9.0925 -3.79375 8.185 -3.6875 7.25 C-2.99585051 3.98038425 -2.17865079 2.46282263 0 0 Z " fill="#F1B45C" transform="translate(82,43)"/>
<path d="M0 0 C1.98 0 3.96 0 6 0 C6.33 0.99 6.66 1.98 7 3 C4.87717331 4.00460531 2.75166979 5.00355602 0.625 6 C-1.15003906 6.8353125 -1.15003906 6.8353125 -2.9609375 7.6875 C-6 9 -6 9 -8 9 C-7 6 -7 6 -5 4 C-5.33 3.34 -5.66 2.68 -6 2 C-4.02 1.67 -2.04 1.34 0 1 C0 0.67 0 0.34 0 0 Z " fill="#2F7EEF" transform="translate(202,266)"/>
<path d="M0 0 C0.99 0 1.98 0 3 0 C3 0.66 3 1.32 3 2 C3.57234375 2.12246094 4.1446875 2.24492187 4.734375 2.37109375 C7.09953191 3.02762868 9.07206797 3.93723512 11.25 5.0625 C11.95640625 5.42472656 12.6628125 5.78695312 13.390625 6.16015625 C13.92171875 6.43730469 14.4528125 6.71445313 15 7 C15 7.33 15 7.66 15 8 C6.42857143 9.42857143 6.42857143 9.42857143 3 7 C3 6.01 3 5.02 3 4 C2.34 4 1.68 4 1 4 C1 3.34 1 2.68 1 2 C0.34 1.67 -0.32 1.34 -1 1 C-0.67 0.67 -0.34 0.34 0 0 Z " fill="#4087DE" transform="translate(115,248)"/>
<path d="M0 0 C0.391875 0.61875 0.78375 1.2375 1.1875 1.875 C3.27717491 4.32496368 4.97463327 5.01879998 8 6 C7.443125 6.268125 6.88625 6.53625 6.3125 6.8125 C3.80287477 8.10122647 1.40665764 9.52926478 -1 11 C-1.33 9.35 -1.66 7.7 -2 6 C-2.99 6.33 -3.98 6.66 -5 7 C-3.75023244 3.34683329 -3.32901247 2.21934164 0 0 Z " fill="#3B4647" transform="translate(209,207)"/>
<path d="M0 0 C1.32 0 2.64 0 4 0 C4 1.32 4 2.64 4 4 C4.66 4 5.32 4 6 4 C6 5.32 6 6.64 6 8 C6.66 8 7.32 8 8 8 C8 8.66 8 9.32 8 10 C3.32894208 8.44298069 -0.08705685 5.91552627 -4 3 C-2.68 2.67 -1.36 2.34 0 2 C0 1.34 0 0.68 0 0 Z " fill="#3F3E43" transform="translate(106,236)"/>
<path d="M0 0 C5.45479185 0.56820748 9.91059256 1.94637945 15 4 C15.05423638 5.91635217 15.09289963 7.83314925 15.125 9.75 C15.14820312 10.81734375 15.17140625 11.8846875 15.1953125 12.984375 C15 16 15 16 13 20 C12.67 15.05 12.34 10.1 12 5 C6.06 3.515 6.06 3.515 0 2 C0 1.34 0 0.68 0 0 Z " fill="#1A1307" transform="translate(94,194)"/>
<path d="M0 0 C0.33 0 0.66 0 1 0 C1 2.64 1 5.28 1 8 C0.34 8 -0.32 8 -1 8 C-1 9.32 -1 10.64 -1 12 C-1.66 12 -2.32 12 -3 12 C-3 13.32 -3 14.64 -3 16 C-3.66 16 -4.32 16 -5 16 C-5 16.66 -5 17.32 -5 18 C-5.66 18 -6.32 18 -7 18 C-7 18.66 -7 19.32 -7 20 C-8.65 20 -10.3 20 -12 20 C-11.29875 19.401875 -10.5975 18.80375 -9.875 18.1875 C-5.13467433 13.47426191 -1.29805003 6.56751502 0 0 Z " fill="#EEB244" transform="translate(215,126)"/>
<path d="M0 0 C2.66694948 -0.05455124 5.33275498 -0.09393392 8 -0.125 C8.74378906 -0.14175781 9.48757812 -0.15851562 10.25390625 -0.17578125 C15.50548443 -0.22144715 19.9516946 0.54287549 25 2 C25 2.33 25 2.66 25 3 C24.22914063 2.97679687 23.45828125 2.95359375 22.6640625 2.9296875 C21.15972656 2.90261719 21.15972656 2.90261719 19.625 2.875 C18.62726563 2.85179687 17.62953125 2.82859375 16.6015625 2.8046875 C13.83737827 2.72783152 13.83737827 2.72783152 12 5 C8.875 5.125 8.875 5.125 6 5 C6.33 4.34 6.66 3.68 7 3 C8.65 3 10.3 3 12 3 C12 2.34 12 1.68 12 1 C8.04 1 4.08 1 0 1 C0 0.67 0 0.34 0 0 Z " fill="#632607" transform="translate(158,35)"/>
<path d="M0 0 C0.66 0 1.32 0 2 0 C2 1.65 2 3.3 2 5 C0.68 5.33 -0.64 5.66 -2 6 C-2 6.66 -2 7.32 -2 8 C-2.66 8 -3.32 8 -4 8 C-4 8.66 -4 9.32 -4 10 C-4.99 10 -5.98 10 -7 10 C-7.33 8.68 -7.66 7.36 -8 6 C-7.34 6 -6.68 6 -6 6 C-6 5.34 -6 4.68 -6 4 C-5.34 4 -4.68 4 -4 4 C-4 3.34 -4 2.68 -4 2 C-2.68 2 -1.36 2 0 2 C0 1.34 0 0.68 0 0 Z " fill="#3F82DE" transform="translate(56,218)"/>
<path d="M0 0 C6.03734378 5.32706804 10.38595334 12.38738608 13 20 C12.625 22.3125 12.625 22.3125 12 24 C12 23.34 12 22.68 12 22 C11.34 22 10.68 22 10 22 C10 20.02 10 18.04 10 16 C9.34 16 8.68 16 8 16 C7.566875 15.0925 7.13375 14.185 6.6875 13.25 C5.16060591 10.07459389 5.16060591 10.07459389 3.3125 7.8125 C2 6 2 6 2 3 C1.34 3 0.68 3 0 3 C0 2.01 0 1.02 0 0 Z " fill="#F1B359" transform="translate(64,88)"/>
<path d="M0 0 C5.2916954 4.40974617 10.17838636 9.08405044 15 14 C15.99887451 15.00112423 16.9984556 16.00154679 18 17 C17.67 17.99 17.34 18.98 17 20 C15.33333333 18.33333333 13.66666667 16.66666667 12 15 C11.38125 14.401875 10.7625 13.80375 10.125 13.1875 C8.13808649 11.14214786 6.21523818 9.06112632 4.3125 6.9375 C3.71050781 6.26589844 3.10851562 5.59429687 2.48828125 4.90234375 C1 3 1 3 0 0 Z " fill="#3B3620" transform="translate(122,233)"/>
<path d="M0 0 C3.88536171 0.5638932 6.45224086 1.66689444 9.6875 3.875 C10.45449219 4.38804688 11.22148437 4.90109375 12.01171875 5.4296875 C14 7 14 7 16 10 C9.4 9.67 2.8 9.34 -4 9 C-4 8.67 -4 8.34 -4 8 C0.62 7.67 5.24 7.34 10 7 C8.35 6.030625 6.7 5.06125 5 4.0625 C3.31485062 3.07247474 1.64270642 2.05895896 0 1 C0 0.67 0 0.34 0 0 Z " fill="#602006" transform="translate(198,44)"/>
<path d="M0 0 C1.2065625 0.0309375 1.2065625 0.0309375 2.4375 0.0625 C2.4375 1.3825 2.4375 2.7025 2.4375 4.0625 C1.7775 4.0625 1.1175 4.0625 0.4375 4.0625 C0.4375 7.3625 0.4375 10.6625 0.4375 14.0625 C-0.2225 13.7325 -0.8825 13.4025 -1.5625 13.0625 C-1.5625 10.7525 -1.5625 8.4425 -1.5625 6.0625 C-2.2225 6.0625 -2.8825 6.0625 -3.5625 6.0625 C-3.605221 4.39638095 -3.60313832 2.72867115 -3.5625 1.0625 C-2.5625 0.0625 -2.5625 0.0625 0 0 Z " fill="#F9B226" transform="translate(37.5625,225.9375)"/>
<path d="M0 0 C0 0.99 0 1.98 0 3 C-2.64 3.66 -5.28 4.32 -8 5 C-7.9175 5.825 -7.835 6.65 -7.75 7.5 C-8.07235989 12.01303847 -9.79294651 15.11795056 -12 19 C-12.66 19 -13.32 19 -14 19 C-13.36515933 16.98967123 -12.6872487 14.99302124 -12 13 C-11.731875 12.16855469 -11.46375 11.33710938 -11.1875 10.48046875 C-8.73441708 3.49940362 -8.73441708 3.49940362 -4.875 0.875 C-2 0 -2 0 0 0 Z " fill="#ECAF45" transform="translate(202,147)"/>
<path d="M0 0 C0.93134766 0.00322266 1.86269531 0.00644531 2.82226562 0.00976562 C4.26182617 0.02233398 4.26182617 0.02233398 5.73046875 0.03515625 C6.70951172 0.03966797 7.68855469 0.04417969 8.69726562 0.04882812 C11.10422986 0.06056941 13.51106732 0.07699206 15.91796875 0.09765625 C15.91796875 0.42765625 15.91796875 0.75765625 15.91796875 1.09765625 C14.94214844 1.14664063 13.96632812 1.195625 12.9609375 1.24609375 C11.68863281 1.32085937 10.41632813 1.395625 9.10546875 1.47265625 C7.20861328 1.57707031 7.20861328 1.57707031 5.2734375 1.68359375 C1.79041641 1.85868564 1.79041641 1.85868564 -1.08203125 4.09765625 C-3.125 4.29296875 -3.125 4.29296875 -5.26953125 4.22265625 C-7.15671875 4.16078125 -7.15671875 4.16078125 -9.08203125 4.09765625 C-9.41203125 3.10765625 -9.74203125 2.11765625 -10.08203125 1.09765625 C-6.65629188 0.32237146 -3.5096388 -0.02153153 0 0 Z " fill="#F9E6A7" transform="translate(129.08203125,73.90234375)"/>
<path d="M0 0 C3.96 0 7.92 0 12 0 C12 0.66 12 1.32 12 2 C10.68 2 9.36 2 8 2 C8 2.66 8 3.32 8 4 C7.34 4 6.68 4 6 4 C6 4.66 6 5.32 6 6 C4.68 6 3.36 6 2 6 C2 5.01 2 4.02 2 3 C1.34 2.67 0.68 2.34 0 2 C0 1.34 0 0.68 0 0 Z " fill="#E7B337" transform="translate(44,218)"/>
<path d="M0 0 C4.20240011 3.71750779 6.99782679 8.31660979 10 13 C9.01 13.495 9.01 13.495 8 14 C8 13.34 8 12.68 8 12 C6.68 12 5.36 12 4 12 C4 11.34 4 10.68 4 10 C3.34 10 2.68 10 2 10 C1.34 6.7 0.68 3.4 0 0 Z " fill="#F0B143" transform="translate(98,170)"/>
<path d="M0 0 C0.33 0 0.66 0 1 0 C1.06058594 1.19496094 1.12117188 2.38992187 1.18359375 3.62109375 C1.79215577 15.33528961 1.79215577 15.33528961 3 27 C-0.20640134 23.79359866 -1.30813596 20.45932538 -2 16 C-1.82948481 10.61885795 -0.90362883 5.29825537 0 0 Z " fill="#522E10" transform="translate(84,110)"/>
<path d="M0 0 C2.08379509 3.84700632 3.49686624 7.90054429 5 12 C3.54119891 11.85892253 2.08296449 11.71197585 0.625 11.5625 C-0.59316406 11.44068359 -0.59316406 11.44068359 -1.8359375 11.31640625 C-4 11 -4 11 -6 10 C-6 9.34 -6 8.68 -6 8 C-4.02 8 -2.04 8 0 8 C0 5.36 0 2.72 0 0 Z " fill="#E7AA4B" transform="translate(70,76)"/>
<path d="M0 0 C1.65 0 3.3 0 5 0 C0.70214922 5.03163018 -3.63425542 10.02718443 -8 15 C-8.66 14.01 -9.32 13.02 -10 12 C-9.34 11.566875 -8.68 11.13375 -8 10.6875 C-7.01 9.8521875 -7.01 9.8521875 -6 9 C-6 8.01 -6 7.02 -6 6 C-4.68 6 -3.36 6 -2 6 C-1.34 4.02 -0.68 2.04 0 0 Z " fill="#F1B355" transform="translate(92,28)"/>
<path d="M0 0 C0.33 0.99 0.66 1.98 1 3 C-2.96 7.29 -6.92 11.58 -11 16 C-11.33 14.68 -11.66 13.36 -12 12 C-11.44570312 11.54109375 -10.89140625 11.0821875 -10.3203125 10.609375 C-9.59585938 9.99578125 -8.87140625 9.3821875 -8.125 8.75 C-7.04605469 7.84507812 -7.04605469 7.84507812 -5.9453125 6.921875 C-4.01688521 5.01668177 -3.14670987 3.41738837 -2 1 C-1.34 0.67 -0.68 0.34 0 0 Z " fill="#DED4A6" transform="translate(167,223)"/>
<path d="M0 0 C0.99 1.32 1.98 2.64 3 4 C-0.42094242 6.28062828 -1.68187222 6.21925007 -5.6875 6.125 C-7.17830078 6.09792969 -7.17830078 6.09792969 -8.69921875 6.0703125 C-9.45847656 6.04710937 -10.21773437 6.02390625 -11 6 C-11 5.34 -11 4.68 -11 4 C-7.37 2.68 -3.74 1.36 0 0 Z " fill="#4C86C7" transform="translate(69,212)"/>
<path d="M0 0 C1.32 0 2.64 0 4 0 C4 0.99 4 1.98 4 3 C4.99 3.33 5.98 3.66 7 4 C5.06441401 4.67220351 3.12645628 5.33758077 1.1875 6 C0.10855469 6.37125 -0.97039062 6.7425 -2.08203125 7.125 C-5 8 -5 8 -8 8 C-8 7.34 -8 6.68 -8 6 C-4.91190305 4.23537317 -3.76687864 4 0 4 C0 2.68 0 1.36 0 0 Z " fill="#357EED" transform="translate(186,272)"/>
<path d="M0 0 C1.12212891 0.06574219 2.24425781 0.13148437 3.40039062 0.19921875 C6.16451194 0.36388981 8.9258902 0.54809359 11.6875 0.75 C11.6875 1.08 11.6875 1.41 11.6875 1.75 C11.12877197 1.77505615 10.57004395 1.8001123 9.99438477 1.82592773 C7.41277572 1.94343105 4.83139764 2.0654438 2.25 2.1875 C1.37150391 2.22681641 0.49300781 2.26613281 -0.41210938 2.30664062 C-6.08197262 2.57862668 -11.67698953 3.06777645 -17.3125 3.75 C-12.50935207 -1.84463732 -6.70520351 -0.49377887 0 0 Z " fill="#E7AE69" transform="translate(158.3125,33.25)"/>
<path d="M0 0 C0.66 0.33 1.32 0.66 2 1 C-0.89005886 6.20210595 -3.12937158 8.11301229 -9 10 C-10.32 10 -11.64 10 -13 10 C-12.67 8.68 -12.34 7.36 -12 6 C-9.03 6 -6.06 6 -3 6 C-2.690625 5.195625 -2.38125 4.39125 -2.0625 3.5625 C-1 1 -1 1 0 0 Z " fill="#DDBA51" transform="translate(71,206)"/>
<path d="M0 0 C1.32 0.33 2.64 0.66 4 1 C3.31292969 1.54269531 2.62585938 2.08539063 1.91796875 2.64453125 C1.01691406 3.35996094 0.11585937 4.07539063 -0.8125 4.8125 C-1.70582031 5.52019531 -2.59914063 6.22789062 -3.51953125 6.95703125 C-5.47076911 8.56411377 -7.26274976 10.17040423 -9 12 C-9.625 10.125 -9.625 10.125 -10 8 C-9.34 7.34 -8.68 6.68 -8 6 C-8 5.34 -8 4.68 -8 4 C-6.02 4 -4.04 4 -2 4 C-2 3.34 -2 2.68 -2 2 C-1.34 2 -0.68 2 0 2 C0 1.34 0 0.68 0 0 Z " fill="#E3B455" transform="translate(82,194)"/>
<path d="M0 0 C1.98 0 3.96 0 6 0 C6 0.66 6 1.32 6 2 C7.19625 1.95875 8.3925 1.9175 9.625 1.875 C13.42329953 1.86148292 16.44975618 2.57990247 20 4 C20 4.66 20 5.32 20 6 C15.48829346 6.20262155 12.01313982 5.5924627 7.75 4.125 C6.19539063 3.60292969 6.19539063 3.60292969 4.609375 3.0703125 C2 2 2 2 0 0 Z " fill="#F9AF22" transform="translate(82,186)"/>
<path d="M0 0 C6.0546875 -0.1953125 6.0546875 -0.1953125 8 0 C10.58844848 2.58844848 10.23877442 4.39883667 10.265625 7.9296875 C10 10 10 10 8 14 C8 10.04 8 6.08 8 2 C6.35 2 4.7 2 3 2 C2.67 2.66 2.34 3.32 2 4 C2 3.34 2 2.68 2 2 C1.34 2 0.68 2 0 2 C0 1.34 0 0.68 0 0 Z " fill="#FBD27A" transform="translate(206,116)"/>
<path d="M0 0 C2.66769422 0.15243967 4.44334709 0.44650989 6.375 2.3671875 C7.60348251 3.89547824 8.80289981 5.44700516 10 7 C10.66 7.33 11.32 7.66 12 8 C12 8.66 12 9.32 12 10 C10.68 9.67 9.36 9.34 8 9 C8 8.34 8 7.68 8 7 C6.68 6.67 5.36 6.34 4 6 C4 5.34 4 4.68 4 4 C2.68 3.67 1.36 3.34 0 3 C0 2.01 0 1.02 0 0 Z " fill="#30404D" transform="translate(90,228)"/>
<path d="M0 0 C0.33 0 0.66 0 1 0 C1.33910994 2.04071515 1.67102704 4.08262621 2 6.125 C2.185625 7.26195312 2.37125 8.39890625 2.5625 9.5703125 C2.97451216 12.80019358 3.26121604 15.75345775 3 19 C0.5 21.375 0.5 21.375 -2 23 C-1.67257813 22.36707031 -1.34515625 21.73414063 -1.0078125 21.08203125 C0.36144606 16.8946475 0.21471519 13.05939028 0.125 8.6875 C0.11597656 7.85154297 0.10695312 7.01558594 0.09765625 6.15429688 C0.07420989 4.10274031 0.03834266 2.05133223 0 0 Z " fill="#E3D1AB" transform="translate(173,197)"/>
<path d="M0 0 C0.66 0.33 1.32 0.66 2 1 C2.33 1.99 2.66 2.98 3 4 C3.66 4.33 4.32 4.66 5 5 C0.25 9 0.25 9 -2 9 C-2.33 9.99 -2.66 10.98 -3 12 C-4.21386936 8.35839192 -3.6674695 7.66834531 -2.0625 4.3125 C-1.49208984 3.10013672 -1.49208984 3.10013672 -0.91015625 1.86328125 C-0.60980469 1.24839844 -0.30945313 0.63351563 0 0 Z " fill="#EEB855" transform="translate(103,30)"/>
<path d="M0 0 C1.32 0 2.64 0 4 0 C4.66 1.32 5.32 2.64 6 4 C2.04 5.98 2.04 5.98 -2 8 C-2.125 5.125 -2.125 5.125 -2 2 C-1.34 1.34 -0.68 0.68 0 0 Z " fill="#3782EB" transform="translate(213,259)"/>
<path d="M0 0 C0 1.32 0 2.64 0 4 C-1.98 4 -3.96 4 -6 4 C-6 4.66 -6 5.32 -6 6 C-9.3 6 -12.6 6 -16 6 C-16 5.34 -16 4.68 -16 4 C-15.175 4.0825 -14.35 4.165 -13.5 4.25 C-9.51318958 3.96522783 -7.17057565 2.79287943 -3.734375 0.875 C-2 0 -2 0 0 0 Z " fill="#498AD4" transform="translate(154,256)"/>
<path d="M0 0 C1.98 0 3.96 0 6 0 C6 1.32 6 2.64 6 4 C6.66 4 7.32 4 8 4 C8 4.66 8 5.32 8 6 C6.02 6 4.04 6 2 6 C2 5.34 2 4.68 2 4 C1.34 4 0.68 4 0 4 C0 2.68 0 1.36 0 0 Z " fill="#4A3F30" transform="translate(112,240)"/>
<path d="M0 0 C0.66 0.33 1.32 0.66 2 1 C0.7260411 3.03833424 -0.61061923 5.03852126 -2 7 C-2.66 7 -3.32 7 -4 7 C-4.226875 7.53625 -4.45375 8.0725 -4.6875 8.625 C-6.43382056 11.78500863 -8.6402849 14.2676983 -11 17 C-11.66 16.67 -12.32 16.34 -13 16 C-12.09507812 14.89591797 -12.09507812 14.89591797 -11.171875 13.76953125 C-10.37265625 12.79371094 -9.5734375 11.81789062 -8.75 10.8125 C-7.96109375 9.84957031 -7.1721875 8.88664063 -6.359375 7.89453125 C-4.22415228 5.27499477 -2.10643639 2.64270803 0 0 Z " fill="#3A321A" transform="translate(174,217)"/>
<path d="M0 0 C2.31 0 4.62 0 7 0 C6.401875 0.309375 5.80375 0.61875 5.1875 0.9375 C1.9268981 4.01178179 1.1733077 7.76009264 0 12 C-0.33 12 -0.66 12 -1 12 C-1.02698189 10.37509046 -1.04638757 8.75005367 -1.0625 7.125 C-1.07410156 6.22007812 -1.08570313 5.31515625 -1.09765625 4.3828125 C-1 2 -1 2 0 0 Z " fill="#F9CE7B" transform="translate(191,148)"/>
<path d="M0 0 C1.32 0 2.64 0 4 0 C2.5741914 3.45195767 0.90253666 5.1014256 -2.125 7.25 C-3.21167969 8.03117188 -3.21167969 8.03117188 -4.3203125 8.828125 C-4.87460938 9.21484375 -5.42890625 9.6015625 -6 10 C-7.32 9.34 -8.64 8.68 -10 8 C-8.68 8 -7.36 8 -6 8 C-6 7.34 -6 6.68 -6 6 C-5.34 5.34 -4.68 4.68 -4 4 C-2.68 4 -1.36 4 0 4 C0 2.68 0 1.36 0 0 Z " fill="#FAD179" transform="translate(206,138)"/>
<path d="M0 0 C2.42130331 2.42130331 2.52840504 3.80111377 3.125 7.125 C3.29257812 8.03507812 3.46015625 8.94515625 3.6328125 9.8828125 C3.81457031 10.93082031 3.81457031 10.93082031 4 12 C3.34 12 2.68 12 2 12 C2.33 13.65 2.66 15.3 3 17 C2.34 16.67 1.68 16.34 1 16 C-0.34751434 10.74469407 -0.09576651 5.38420602 0 0 Z " fill="#F0AD2B" transform="translate(276,94)"/>
<path d="M0 0 C0.99 0.33 1.98 0.66 3 1 C2.42415568 3.38564077 1.77772405 5.66682784 1 8 C0.34 8 -0.32 8 -1 8 C-1 9.65 -1 11.3 -1 13 C-1.66 13 -2.32 13 -3 13 C-3.33 13.66 -3.66 14.32 -4 15 C-3.32584613 9.7415998 -1.75734451 4.97361654 0 0 Z " fill="#F4DDAB" transform="translate(203,121)"/>
<path d="M0 0 C0.74958984 0.00451172 1.49917969 0.00902344 2.27148438 0.01367188 C4.11852383 0.02543646 5.96552213 0.04337135 7.8125 0.0625 C7.8125 0.3925 7.8125 0.7225 7.8125 1.0625 C4.5125 1.0625 1.2125 1.0625 -2.1875 1.0625 C-2.1875 1.7225 -2.1875 2.3825 -2.1875 3.0625 C-1.1975 3.3925 -0.2075 3.7225 0.8125 4.0625 C-0.62586751 3.94791307 -2.06320966 3.82040884 -3.5 3.6875 C-4.30050781 3.61789063 -5.10101563 3.54828125 -5.92578125 3.4765625 C-8.1875 3.0625 -8.1875 3.0625 -11.1875 1.0625 C-7.42449626 -0.19183458 -3.91539091 -0.04445422 0 0 Z " fill="#E6AD6B" transform="translate(202.1875,52.9375)"/>
<path d="M0 0 C1.60379341 -0.05416188 3.20811406 -0.09286638 4.8125 -0.125 C5.70582031 -0.14820313 6.59914062 -0.17140625 7.51953125 -0.1953125 C10 0 10 0 13 2 C13 2.66 13 3.32 13 4 C7.78020872 4.1799928 3.92737019 3.97094808 -1 2 C-0.67 1.34 -0.34 0.68 0 0 Z " fill="#F5AC28" transform="translate(186,34)"/>
<path d="M0 0 C1.98 0 3.96 0 6 0 C-0.51485149 5.11881188 -0.51485149 5.11881188 -5.125 4.75 C-8 4 -8 4 -10 2 C-6.7 2 -3.4 2 0 2 C0 1.34 0 0.68 0 0 Z " fill="#294459" transform="translate(146,256)"/>
<path d="M0 0 C0.99 0 1.98 0 3 0 C1.43632643 3.52238047 -0.69495889 6.27123994 -3.125 9.25 C-3.84945312 10.14203125 -4.57390625 11.0340625 -5.3203125 11.953125 C-5.87460938 12.62859375 -6.42890625 13.3040625 -7 14 C-7.33 12.68 -7.66 11.36 -8 10 C-7.34 10 -6.68 10 -6 10 C-6 9.34 -6 8.68 -6 8 C-5.34 8 -4.68 8 -4 8 C-4 7.34 -4 6.68 -4 6 C-3.34 6 -2.68 6 -2 6 C-1.34 4.02 -0.68 2.04 0 0 Z " fill="#FCD47F" transform="translate(182,170)"/>
<path d="M0 0 C0.66 0 1.32 0 2 0 C2.67354499 1.43429001 3.33859701 2.87257057 4 4.3125 C4.556875 5.51326172 4.556875 5.51326172 5.125 6.73828125 C6 9 6 9 6 12 C4.68 12 3.36 12 2 12 C2 9.36 2 6.72 2 4 C1.34 4 0.68 4 0 4 C0 2.68 0 1.36 0 0 Z " fill="#EFB234" transform="translate(66,126)"/>
<path d="M0 0 C2.16099373 2.16099373 2.71563716 3.5210418 3.6875 6.375 C3.95949219 7.14585937 4.23148437 7.91671875 4.51171875 8.7109375 C5.04278009 11.20055308 4.81115526 12.61553018 4 15 C4 14.34 4 13.68 4 13 C3.34 13 2.68 13 2 13 C2 11.35 2 9.7 2 8 C1.34 8 0.68 8 0 8 C0 6.68 0 5.36 0 4 C-0.99 4.495 -0.99 4.495 -2 5 C-2.33 3.68 -2.66 2.36 -3 1 C-2.01 0.67 -1.02 0.34 0 0 Z " fill="#F6DBAA" transform="translate(80,121)"/>
<path d="M0 0 C0.99 0 1.98 0 3 0 C6.44783018 4.30978773 7.56743317 9.76757505 9 15 C8.34 15 7.68 15 7 15 C4.69 10.05 2.38 5.1 0 0 Z " fill="#592A0C" transform="translate(81,72)"/>
<path d="M0 0 C0.33 0 0.66 0 1 0 C1.33 3.63 1.66 7.26 2 11 C1.34 10.67 0.68 10.34 0 10 C-0.66 11.65 -1.32 13.3 -2 15 C-2.33 15 -2.66 15 -3 15 C-2.5547115 9.72684667 -1.91626837 4.98229776 0 0 Z " fill="#763707" transform="translate(72,46)"/>
<path d="M0 0 C0.93423645 3.01031744 1.04449911 3.86650268 0 7 C-0.14573058 8.47965926 -0.24663268 9.96403843 -0.31640625 11.44921875 C-0.35830078 12.29677734 -0.40019531 13.14433594 -0.44335938 14.01757812 C-0.48267578 14.89865234 -0.52199219 15.77972656 -0.5625 16.6875 C-0.60568359 17.58017578 -0.64886719 18.47285156 -0.69335938 19.39257812 C-0.79935353 21.59490108 -0.90142051 23.79733473 -1 26 C-1.33 26 -1.66 26 -2 26 C-2.05785647 22.04172765 -2.09354717 18.0835633 -2.125 14.125 C-2.14175781 12.99707031 -2.15851563 11.86914062 -2.17578125 10.70703125 C-2.18222656 9.63066406 -2.18867187 8.55429687 -2.1953125 7.4453125 C-2.20578613 6.45031738 -2.21625977 5.45532227 -2.22705078 4.43017578 C-2 2 -2 2 0 0 Z " fill="#F4B36A" transform="translate(70,48)"/>
<path d="M0 0 C0.66 0 1.32 0 2 0 C2 0.66 2 1.32 2 2 C2.66 2 3.32 2 4 2 C4 2.66 4 3.32 4 4 C2.68 4 1.36 4 0 4 C0 5.32 0 6.64 0 8 C-1.32 8 -2.64 8 -4 8 C-4 6.68 -4 5.36 -4 4 C-3.34 4 -2.68 4 -2 4 C-2 3.34 -2 2.68 -2 2 C-1.34 2 -0.68 2 0 2 C0 1.34 0 0.68 0 0 Z " fill="#348CEA" transform="translate(54,224)"/>
<path d="M0 0 C1.32 0 2.64 0 4 0 C4 0.66 4 1.32 4 2 C5.0828125 1.8453125 5.0828125 1.8453125 6.1875 1.6875 C10.12041589 2.12449065 11.46321923 4.10082197 14 7 C13.67 7.99 13.34 8.98 13 10 C12.48050781 9.60167969 11.96101562 9.20335937 11.42578125 8.79296875 C7.71163685 5.97131746 4.01431087 3.38349708 0 1 C0 0.67 0 0.34 0 0 Z " fill="#D7B158" transform="translate(194,192)"/>
<path d="M0 0 C4.95 0.99 4.95 0.99 10 2 C10 3.32 10 4.64 10 6 C10.99 6.33 11.98 6.66 13 7 C12.34 7.66 11.68 8.32 11 9 C9.72689688 8.06558465 8.456612 7.12732889 7.1875 6.1875 C6.47980469 5.66542969 5.77210938 5.14335938 5.04296875 4.60546875 C3 3 3 3 0 0 Z " fill="#EDAF52" transform="translate(202,44)"/>
<path d="M0 0 C1.32 0 2.64 0 4 0 C4 1.32 4 2.64 4 4 C5.32 4.33 6.64 4.66 8 5 C4.25 8 4.25 8 2 8 C2 6.68 2 5.36 2 4 C1.34 4 0.68 4 0 4 C0 2.68 0 1.36 0 0 Z " fill="#3C414D" transform="translate(194,220)"/>
<path d="M0 0 C0.763125 0.20625 1.52625 0.4125 2.3125 0.625 C2.5 4 2.5 4 2.3125 7.625 C1.3225 8.285 0.3325 8.945 -0.6875 9.625 C-1.0175 8.635 -1.3475 7.645 -1.6875 6.625 C-1.0275 5.965 -0.3675 5.305 0.3125 4.625 C-0.0175 3.965 -0.3475 3.305 -0.6875 2.625 C-3.21483235 1.96944881 -3.21483235 1.96944881 -5.6875 1.625 C-2.6875 -0.375 -2.6875 -0.375 0 0 Z " fill="#282524" transform="translate(104.6875,198.375)"/>
<path d="M0 0 C1.125 3.75 1.125 3.75 0 6 C-0.03023585 8.27632724 0.06648382 10.53422718 0.16015625 12.80859375 C0 15 0 15 -2 18 C-3.7372036 14.77463248 -4.06482258 13.31777964 -3.3203125 9.66796875 C-2.92585937 8.51941406 -2.53140625 7.37085937 -2.125 6.1875 C-1.73570313 5.02605469 -1.34640625 3.86460938 -0.9453125 2.66796875 C-0.63335937 1.78753906 -0.32140625 0.90710938 0 0 Z " fill="#F0AC35" transform="translate(7,94)"/>
<path d="M0 0 C2.64 0.33 5.28 0.66 8 1 C8 1.66 8 2.32 8 3 C8.99 3.33 9.98 3.66 11 4 C11.6875 6.0625 11.6875 6.0625 12 8 C11.01 8.66 10.02 9.32 9 10 C9 8.35 9 6.7 9 5 C8.2575 4.9175 7.515 4.835 6.75 4.75 C3.48778646 3.8603054 2.19045122 2.51496251 0 0 Z " fill="#59260A" transform="translate(190,85)"/>
<path d="M0 0 C0.66 0 1.32 0 2 0 C2 0.66 2 1.32 2 2 C2.66 2 3.32 2 4 2 C5.76462683 5.08809695 6 6.23312136 6 10 C5.34 10 4.68 10 4 10 C4 8.68 4 7.36 4 6 C2.68 6 1.36 6 0 6 C0 4.02 0 2.04 0 0 Z " fill="#4183C5" transform="translate(238,228)"/>
<path d="M0 0 C1.98 0.66 3.96 1.32 6 2 C6 2.66 6 3.32 6 4 C6.66 4 7.32 4 8 4 C8 5.65 8 7.3 8 9 C7.34 8.67 6.68 8.34 6 8 C6.33 7.34 6.66 6.68 7 6 C6.34 6 5.68 6 5 6 C4.67 6.99 4.34 7.98 4 9 C3.34 8.01 2.68 7.02 2 6 C2.66 6 3.32 6 4 6 C4 5.34 4 4.68 4 4 C2.68 3.34 1.36 2.68 0 2 C0 1.34 0 0.68 0 0 Z " fill="#E2D097" transform="translate(120,226)"/>
<path d="M0 0 C3.39187279 1.41573821 5.09697541 3.04230966 7.25 6 C8.03117188 7.051875 8.03117188 7.051875 8.828125 8.125 C10 10 10 10 10 12 C6.12090583 10.52861945 4.98943759 8.54638875 3 5 C2.443125 4.443125 1.88625 3.88625 1.3125 3.3125 C0.879375 2.879375 0.44625 2.44625 0 2 C0 1.34 0 0.68 0 0 Z " fill="#473B16" transform="translate(204,200)"/>
<path d="M0 0 C1.65 0 3.3 0 5 0 C5 1.32 5 2.64 5 4 C0.87831311 5.62950412 -1.70700357 6.26264601 -6 5 C-4.04783565 3.04783565 -2.46800047 2.15173355 0 1 C0 0.67 0 0.34 0 0 Z " fill="#EDAB4A" transform="translate(159,26)"/>
<path d="M0 0 C0.99 0.66 1.98 1.32 3 2 C0.69 4.97 -1.62 7.94 -4 11 C-4.33 9.68 -4.66 8.36 -5 7 C-4.34 7 -3.68 7 -3 7 C-3 5.68 -3 4.36 -3 3 C-2.34 3 -1.68 3 -1 3 C-0.67 2.01 -0.34 1.02 0 0 Z " fill="#EFA937" transform="translate(251,229)"/>
<path d="M0 0 C-1.32 2.31 -2.64 4.62 -4 7 C-4.99 6.67 -5.98 6.34 -7 6 C-6.75 3.625 -6.75 3.625 -6 1 C-2.69333333 -1.34666667 -2.69333333 -1.34666667 0 0 Z " fill="#F3AF3A" transform="translate(267,212)"/>
<path d="M0 0 C0.66 0.33 1.32 0.66 2 1 C2 2.32 2 3.64 2 5 C3.32 5 4.64 5 6 5 C6 5.66 6 6.32 6 7 C6.66 7 7.32 7 8 7 C8 7.66 8 8.32 8 9 C3.40693504 7.5140084 0.56430755 5.14985318 -3 2 C-2.01 1.34 -1.02 0.68 0 0 Z " fill="#FAD17B" transform="translate(78,139)"/>
<path d="M0 0 C0.66 0 1.32 0 2 0 C3.37494222 2.26461071 4.07991957 3.45654694 3.6875 6.125 C3 8 3 8 2 10 C1.34 10 0.68 10 0 10 C0 6.7 0 3.4 0 0 Z " fill="#F6B228" transform="translate(66,42)"/>
<path d="M0 0 C0.33 0.66 0.66 1.32 1 2 C-0.8125 4.5 -0.8125 4.5 -3 7 C-3.99 7 -4.98 7 -6 7 C-6.66 6.34 -7.32 5.68 -8 5 C-5.64722731 2.27573689 -3.37503669 1.1858237 0 0 Z " fill="#3F86E5" transform="translate(201,226)"/>
<path d="M0 0 C0.66 0 1.32 0 2 0 C2 0.66 2 1.32 2 2 C3.98 2 5.96 2 8 2 C8 2.66 8 3.32 8 4 C9.32 4 10.64 4 12 4 C12 4.99 12 5.98 12 7 C10.56068883 6.54738642 9.12361001 6.08767021 7.6875 5.625 C6.88699219 5.36976563 6.08648437 5.11453125 5.26171875 4.8515625 C3 4 3 4 0 2 C0 1.34 0 0.68 0 0 Z " fill="#CFBB66" transform="translate(214,210)"/>
<path d="M0 0 C0.66 0 1.32 0 2 0 C2 0.66 2 1.32 2 2 C2.66 2 3.32 2 4 2 C4 2.66 4 3.32 4 4 C4.66 4 5.32 4 6 4 C7.0625 5.8125 7.0625 5.8125 8 8 C7.67 8.99 7.34 9.98 7 11 C5.82750647 9.54634731 4.66216184 8.08692581 3.5 6.625 C2.52546875 5.40683594 2.52546875 5.40683594 1.53125 4.1640625 C0 2 0 2 0 0 Z " fill="#FBD37E" transform="translate(98,168)"/>
<path d="M0 0 C0.99 0.33 1.98 0.66 3 1 C1.72278474 5.99275057 -0.17330957 8.57611908 -4 12 C-4.66 11.67 -5.32 11.34 -6 11 C-5.21654285 9.82780457 -4.42297164 8.66236332 -3.625 7.5 C-3.18414062 6.8503125 -2.74328125 6.200625 -2.2890625 5.53125 C-1.86367187 5.0259375 -1.43828125 4.520625 -1 4 C-0.34 4 0.32 4 1 4 C0.67 2.68 0.34 1.36 0 0 Z " fill="#642506" transform="translate(218,68)"/>
<path d="M0 0 C-1.4859916 4.59306496 -3.85014682 7.43569245 -7 11 C-7.33 10.34 -7.66 9.68 -8 9 C-6.35 6.69 -4.7 4.38 -3 2 C-4.32 1.67 -5.64 1.34 -7 1 C-2.25 0 -2.25 0 0 0 Z " fill="#1D1B17" transform="translate(186,200)"/>
<path d="M0 0 C3.96 0 7.92 0 12 0 C11.67 1.32 11.34 2.64 11 4 C7.37 3.01 3.74 2.02 0 1 C0 0.67 0 0.34 0 0 Z " fill="#D5A955" transform="translate(98,194)"/>
<path d="M0 0 C0.33 1.32 0.66 2.64 1 4 C0.34 4 -0.32 4 -1 4 C-1 4.66 -1 5.32 -1 6 C-1.66 6 -2.32 6 -3 6 C-3.33 7.32 -3.66 8.64 -4 10 C-4.99 10 -5.98 10 -7 10 C-5.33248852 6.05860922 -2.77289351 3.2107188 0 0 Z " fill="#ECB048" transform="translate(181,176)"/>
<path d="M0 0 C2 2 2 2 2 6 C0.54207116 6.05399736 -0.91642712 6.09279177 -2.375 6.125 C-3.18710938 6.14820312 -3.99921875 6.17140625 -4.8359375 6.1953125 C-7 6 -7 6 -9 4 C-6.69 4 -4.38 4 -2 4 C-1.34 2.68 -0.68 1.36 0 0 Z " fill="#E9AD4C" transform="translate(77,110)"/>
<path d="M0 0 C1.32 0.66 2.64 1.32 4 2 C3.34 2 2.68 2 2 2 C2 3.32 2 4.64 2 6 C-0.375 6.625 -0.375 6.625 -3 7 C-3.66 6.34 -4.32 5.68 -5 5 C-3 2 -3 2 0 0 Z " fill="#2A80F8" transform="translate(86,266)"/>
<path d="M0 0 C1.32 0 2.64 0 4 0 C4 0.66 4 1.32 4 2 C4.66 2 5.32 2 6 2 C6 3.32 6 4.64 6 6 C4.02 5.34 2.04 4.68 0 4 C0 2.68 0 1.36 0 0 Z " fill="#EAB648" transform="translate(226,214)"/>
<path d="M0 0 C-1.485 2.475 -1.485 2.475 -3 5 C-4.98 4.34 -6.96 3.68 -9 3 C-9 2.34 -9 1.68 -9 1 C-5.92677456 0.08941469 -3.19902639 -0.08886184 0 0 Z " fill="#211B0F" transform="translate(191,194)"/>
<path d="M0 0 C2.0625 2.3125 2.0625 2.3125 4 5 C3.67 5.99 3.34 6.98 3 8 C1.68 8 0.36 8 -1 8 C-1.125 2.25 -1.125 2.25 0 0 Z " fill="#F4B722" transform="translate(269,78)"/>
<path d="M0 0 C0.33 0 0.66 0 1 0 C1 1.65 1 3.3 1 5 C1.66 5 2.32 5 3 5 C3 5.66 3 6.32 3 7 C3.66 7 4.32 7 5 7 C5 7.66 5 8.32 5 9 C3.02 9 1.04 9 -1 9 C-0.67 6.03 -0.34 3.06 0 0 Z " fill="#FDAB22" transform="translate(243,41)"/>
<path d="M0 0 C3.3 1.98 6.6 3.96 10 6 C9.01 6.33 8.02 6.66 7 7 C6.67 6.67 6.34 6.34 6 6 C3.67182036 5.63239269 1.3381615 5.29758419 -1 5 C-0.67 3.35 -0.34 1.7 0 0 Z " fill="#F6AB3F" transform="translate(215,19)"/>
<path d="M0 0 C0.66 0 1.32 0 2 0 C2.33 2.97 2.66 5.94 3 9 C2.01 9 1.02 9 0 9 C-0.33 8.67 -0.66 8.34 -1 8 C-0.82364548 5.30917128 -0.38164079 2.67148554 0 0 Z " fill="#3B81C7" transform="translate(40,234)"/>
<path d="M0 0 C3 0 3 0 4.8125 1.6875 C6 4 6 4 5.1875 6.75 C4.795625 7.4925 4.40375 8.235 4 9 C3.525625 8.505 3.05125 8.01 2.5625 7.5 C1.24076302 5.88457803 1.24076302 5.88457803 0 6 C0 4.02 0 2.04 0 0 Z " fill="#773913" transform="translate(69,68)"/>
<path d="M0 0 C0.33 1.32 0.66 2.64 1 4 C-0.32 4 -1.64 4 -3 4 C-3 4.66 -3 5.32 -3 6 C-4.98 6 -6.96 6 -9 6 C-6.11912454 3.59927045 -3.43595166 1.52708963 0 0 Z " fill="#4C85C7" transform="translate(163,250)"/>
<path d="M0 0 C2.31 0.33 4.62 0.66 7 1 C3.80009492 3.74277578 0.99500618 5.6302836 -3 7 C-3 6.34 -3 5.68 -3 5 C-2.01 4.34 -1.02 3.68 0 3 C0 2.01 0 1.02 0 0 Z " fill="#31404C" transform="translate(179,235)"/>
<path d="M0 0 C1.65 0 3.3 0 5 0 C5 2.64 5 5.28 5 8 C2.27573689 5.64722731 1.1858237 3.37503669 0 0 Z " fill="#F3A93A" transform="translate(19,214)"/>
<path d="M0 0 C3 1 3 1 4 3 C4.35169068 4.32860925 4.68770276 5.66158328 5 7 C4.67 6.34 4.34 5.68 4 5 C1.97536745 4.34786708 1.97536745 4.34786708 0 4 C-0.66 5.32 -1.32 6.64 -2 8 C-2.33 6.02 -2.66 4.04 -3 2 C-2.01 2 -1.02 2 0 2 C0 1.34 0 0.68 0 0 Z " fill="#DFC589" transform="translate(111,194)"/>
<path d="M0 0 C1.98 0.99 1.98 0.99 4 2 C4 3.65 4 5.3 4 7 C3.01 7.33 2.02 7.66 1 8 C-0.35439668 5.29120665 -0.06501451 2.99066732 0 0 Z " fill="#F5B223" transform="translate(66,96)"/>
<path d="M0 0 C1.32 0 2.64 0 4 0 C4 3.3 4 6.6 4 10 C3.34 10 2.68 10 2 10 C2 7.36 2 4.72 2 2 C1.34 2 0.68 2 0 2 C0 1.34 0 0.68 0 0 Z " fill="#FCAB42" transform="translate(268,88)"/>
<path d="M0 0 C1.60495567 0.11442461 3.20898119 0.24194694 4.8125 0.375 C5.70582031 0.44460937 6.59914062 0.51421875 7.51953125 0.5859375 C10 1 10 1 13 3 C8.02398374 4.71050559 4.57383705 3.00885647 0 1 C0 0.67 0 0.34 0 0 Z M4 3 C6 4 6 4 6 4 Z " fill="#F4DCAA" transform="translate(162,78)"/>
<path d="M0 0 C0.66 0 1.32 0 2 0 C2 0.66 2 1.32 2 2 C2.5775 1.649375 3.155 1.29875 3.75 0.9375 C6.35801776 -0.14917407 7.39417629 0.06934867 10 1 C8.66666667 2.33333333 7.33333333 3.66666667 6 5 C4.02 4.01 2.04 3.02 0 2 C0 1.34 0 0.68 0 0 Z " fill="#2E7BE8" transform="translate(74,266)"/>
<path d="M0 0 C0.66 0 1.32 0 2 0 C1.67 2.31 1.34 4.62 1 7 C-0.98 6.01 -2.96 5.02 -5 4 C-4.360625 3.71125 -3.72125 3.4225 -3.0625 3.125 C-0.84793921 2.17176549 -0.84793921 2.17176549 0 0 Z " fill="#3486E9" transform="translate(72,260)"/>
<path d="M0 0 C3.24208567 0.35049575 4.61527704 0.56221181 6.8125 3.0625 C7.204375 3.701875 7.59625 4.34125 8 5 C5.36 4.67 2.72 4.34 0 4 C0 2.68 0 1.36 0 0 Z " fill="#40402F" transform="translate(118,236)"/>
<path d="M0 0 C0.66 0 1.32 0 2 0 C2 0.66 2 1.32 2 2 C2.66 2 3.32 2 4 2 C3.34 4.64 2.68 7.28 2 10 C1.34 10 0.68 10 0 10 C0 6.7 0 3.4 0 0 Z " fill="#3A85DC" transform="translate(234,224)"/>
<path d="M0 0 C0.33 0 0.66 0 1 0 C1 2.97 1 5.94 1 9 C1.66 9.33 2.32 9.66 3 10 C1.68 10.33 0.36 10.66 -1 11 C-1.02688151 9.35425434 -1.04634123 7.70838587 -1.0625 6.0625 C-1.07410156 5.14597656 -1.08570313 4.22945312 -1.09765625 3.28515625 C-1 1 -1 1 0 0 Z " fill="#E9BE6B" transform="translate(173,185)"/>
<path d="M0 0 C1.65 0 3.3 0 5 0 C3.8141763 3.37503669 2.72426311 5.64722731 0 8 C-0.98120464 4.94736336 -0.98120464 3.05263664 0 0 Z " fill="#72321F" transform="translate(211,88)"/>
<path d="M0 0 C2.68220482 2.68220482 4.45191229 4.57791137 6 8 C5.1875 10.8125 5.1875 10.8125 4 13 C3.67 13 3.34 13 3 13 C2.01 8.71 1.02 4.42 0 0 Z " fill="#E4C2A2" transform="translate(81,74)"/>
<path d="M0 0 C0.99 0 1.98 0 3 0 C3 0.66 3 1.32 3 2 C3.66 2 4.32 2 5 2 C5 1.34 5 0.68 5 0 C5.66 0 6.32 0 7 0 C6.67 1.65 6.34 3.3 6 5 C5.01 5.33 4.02 5.66 3 6 C2 4 1 2 0 0 Z " fill="#733311" transform="translate(71,78)"/>
<path d="M0 0 C3.3 0 6.6 0 10 0 C10 0.66 10 1.32 10 2 C6.33694766 2.74926071 3.57644848 3.2380014 0 2 C0 1.34 0 0.68 0 0 Z " fill="#6E3403" transform="translate(186,48)"/>
<path d="M0 0 C6.52307692 -0.36923077 6.52307692 -0.36923077 8.9375 1.5 C9.288125 1.995 9.63875 2.49 10 3 C8.375 3.6875 8.375 3.6875 6 4 C2.75 2.5625 2.75 2.5625 0 1 C0 0.67 0 0.34 0 0 Z " fill="#363E4D" transform="translate(128,254)"/>
<path d="M0 0 C0 0.99 0 1.98 0 3 C-1.65 3 -3.3 3 -5 3 C-5 2.34 -5 1.68 -5 1 C-5.66 1 -6.32 1 -7 1 C-7 0.34 -7 -0.32 -7 -1 C-3.51418144 -2.2020064 -3.32007656 -2.21338437 0 0 Z " fill="#4B4947" transform="translate(143,253)"/>
<path d="M0 0 C0.33 0.66 0.66 1.32 1 2 C0 4 0 4 -2.3125 5.1875 C-5 6 -5 6 -9 5 C-6.03 3.35 -3.06 1.7 0 0 Z " fill="#4D83C3" transform="translate(174,244)"/>
<path d="M0 0 C1.32 0 2.64 0 4 0 C4 0.66 4 1.32 4 2 C4.66 2 5.32 2 6 2 C6 3.65 6 5.3 6 7 C1.125 3.375 1.125 3.375 0 0 Z " fill="#F4AB39" transform="translate(30,230)"/>
<path d="M0 0 C0.33 0.66 0.66 1.32 1 2 C1.66 2 2.32 2 3 2 C3 2.66 3 3.32 3 4 C3.66 4 4.32 4 5 4 C4.67 4.66 4.34 5.32 4 6 C2.35 6 0.7 6 -1 6 C-1.042721 4.33388095 -1.04063832 2.66617115 -1 1 C-0.67 0.67 -0.34 0.34 0 0 Z " fill="#FDAC3E" transform="translate(243,222)"/>
<path d="M0 0 C2.31 0.66 4.62 1.32 7 2 C7.33 3.65 7.66 5.3 8 7 C6.66382648 6.02471263 5.3311249 5.04466681 4 4.0625 C3.2575 3.51722656 2.515 2.97195312 1.75 2.41015625 C1.1725 1.94480469 0.595 1.47945312 0 1 C0 0.67 0 0.34 0 0 Z " fill="#36414F" transform="translate(70,213)"/>
<path d="M0 0 C0.66 0.33 1.32 0.66 2 1 C2 4.3 2 7.6 2 11 C1.34 11 0.68 11 0 11 C-0.19491452 9.54263913 -0.38069358 8.08405407 -0.5625 6.625 C-0.66691406 5.81289062 -0.77132812 5.00078125 -0.87890625 4.1640625 C-1 2 -1 2 0 0 Z " fill="#EEB03F" transform="translate(108,183)"/>
<path d="M0 0 C2.2109885 0.42793326 3.98119242 0.99059621 6 2 C6 2.66 6 3.32 6 4 C4 5 4 5 1 6 C1 5.01 1 4.02 1 3 C0.34 2.34 -0.32 1.68 -1 1 C-0.67 0.67 -0.34 0.34 0 0 Z " fill="#61290F" transform="translate(177,76)"/>
<path d="M0 0 C2.64 0 5.28 0 8 0 C8 0.66 8 1.32 8 2 C5.36 2.33 2.72 2.66 0 3 C0 2.01 0 1.02 0 0 Z " fill="#EAB33A" transform="translate(150,31)"/>
<path d="M0 0 C0.66 0.33 1.32 0.66 2 1 C2 1.99 2 2.98 2 4 C3.98 4 5.96 4 8 4 C4.375 7 4.375 7 1 7 C0.34 5.02 -0.32 3.04 -1 1 C-0.67 0.67 -0.34 0.34 0 0 Z " fill="#E4AA41" transform="translate(104,28)"/>
<path d="M0 0 C0 3.99904969 -1.72586967 5.80200422 -4 9 C-4.66 8.01 -5.32 7.02 -6 6 C-4.75453595 2.26360784 -3.36595047 1.81243487 0 0 Z " fill="#642303" transform="translate(106,23)"/>
<path d="M0 0 C2.97 0.495 2.97 0.495 6 1 C6 1.99 6 2.98 6 4 C4.02 4 2.04 4 0 4 C0 2.68 0 1.36 0 0 Z " fill="#2B8CF8" transform="translate(222,252)"/>
<path d="M0 0 C2.64 0 5.28 0 8 0 C8 1.32 8 2.64 8 4 C5.33333333 3.33333333 2.66666667 2.66666667 0 2 C0 1.34 0 0.68 0 0 Z " fill="#483F2D" transform="translate(90,226)"/>
<path d="M0 0 C1.22589844 0.15275391 1.22589844 0.15275391 2.4765625 0.30859375 C3.41628906 0.43427734 3.41628906 0.43427734 4.375 0.5625 C2.375 2.5625 2.375 2.5625 0.2109375 2.7578125 C-1.00722656 2.72300781 -1.00722656 2.72300781 -2.25 2.6875 C-3.06726563 2.66945313 -3.88453125 2.65140625 -4.7265625 2.6328125 C-5.35304687 2.60960938 -5.97953125 2.58640625 -6.625 2.5625 C-6.625 1.9025 -6.625 1.2425 -6.625 0.5625 C-4.10446405 -0.69776798 -2.7707902 -0.35624445 0 0 Z " fill="#F3B34C" transform="translate(211.625,113.4375)"/>
<path d="M0 0 C3.3 0.33 6.6 0.66 10 1 C10.33 1.99 10.66 2.98 11 4 C9.54119891 3.85892253 8.08296449 3.71197585 6.625 3.5625 C5.40683594 3.44068359 5.40683594 3.44068359 4.1640625 3.31640625 C2 3 2 3 0 2 C0 1.34 0 0.68 0 0 Z " fill="#F0B363" transform="translate(64,84)"/>
<path d="M0 0 C2.97 0.33 5.94 0.66 9 1 C5.91111478 3.05925681 5.29064073 3.2390374 1.8125 3.125 C-0.0746875 3.063125 -0.0746875 3.063125 -2 3 C-1.34 2.01 -0.68 1.02 0 0 Z " fill="#6F3220" transform="translate(172,37)"/>
<path d="M0 0 C2.375 0.3125 2.375 0.3125 5 1 C5.66 1.99 6.32 2.98 7 4 C4.125 4.625 4.125 4.625 1 5 C0.34 4.34 -0.32 3.68 -1 3 C-0.34 2.67 0.32 2.34 1 2 C0.67 1.34 0.34 0.68 0 0 Z " fill="#76371A" transform="translate(117,29)"/>
<path d="M0 0 C3.465 1.485 3.465 1.485 7 3 C5.02 3.99 5.02 3.99 3 5 C3 5.66 3 6.32 3 7 C2.34 7 1.68 7 1 7 C1 5.35 1 3.7 1 2 C0.34 1.67 -0.32 1.34 -1 1 C-0.67 0.67 -0.34 0.34 0 0 Z " fill="#4A86D8" transform="translate(131,256)"/>
<path d="M0 0 C0 0.66 0 1.32 0 2 C-0.66 2 -1.32 2 -2 2 C-2 2.66 -2 3.32 -2 4 C-2.66 4 -3.32 4 -4 4 C-4 4.66 -4 5.32 -4 6 C-5.65 6 -7.3 6 -9 6 C-3.28571429 0 -3.28571429 0 0 0 Z " fill="#4A82C1" transform="translate(184,238)"/>
<path d="M0 0 C0.33 0.99 0.66 1.98 1 3 C-0.65 4.65 -2.3 6.3 -4 8 C-4.99 7.67 -5.98 7.34 -7 7 C-6.01 6.34 -5.02 5.68 -4 5 C-3.31731862 3.67479497 -2.6492959 2.34187818 -2 1 C-1.34 0.67 -0.68 0.34 0 0 Z " fill="#E7DBB2" transform="translate(167,223)"/>
<path d="M0 0 C0.99 0.33 1.98 0.66 3 1 C2.67 2.32 2.34 3.64 2 5 C0.68 5 -0.64 5 -2 5 C-2.33 6.98 -2.66 8.96 -3 11 C-3.33 11 -3.66 11 -4 11 C-3.67 8.69 -3.34 6.38 -3 4 C-2.01 3.67 -1.02 3.34 0 3 C0 2.01 0 1.02 0 0 Z " fill="#F3D08D" transform="translate(160,223)"/>
<path d="M0 0 C2.64 0 5.28 0 8 0 C8 0.66 8 1.32 8 2 C6.68 2 5.36 2 4 2 C4 2.66 4 3.32 4 4 C3.34 4 2.68 4 2 4 C2 3.34 2 2.68 2 2 C1.34 2 0.68 2 0 2 C0 1.34 0 0.68 0 0 Z " fill="#DBAF52" transform="translate(48,218)"/>
<path d="M0 0 C1.32 0 2.64 0 4 0 C4 0.66 4 1.32 4 2 C3.34 2 2.68 2 2 2 C2 2.66 2 3.32 2 4 C0.02 4 -1.96 4 -4 4 C-4 3.34 -4 2.68 -4 2 C-2.68 2 -1.36 2 0 2 C0 1.34 0 0.68 0 0 Z " fill="#FAAB40" transform="translate(62,208)"/>
<path d="M0 0 C2 1.5625 2 1.5625 4 4 C4.25 7.75 4.25 7.75 4 11 C1.6870518 8.6870518 1.50419025 7.52095125 0.875 4.375 C0.70742187 3.55773437 0.53984375 2.74046875 0.3671875 1.8984375 C0.24601563 1.27195313 0.12484375 0.64546875 0 0 Z " fill="#EDA838" transform="translate(4,179)"/>
<path d="M0 0 C0.99 0 1.98 0 3 0 C2.42647107 3.87132028 0.51295648 6.08172796 -2 9 C-1.49396008 6.83125748 -1.00016187 5.00032373 0 3 C-0.66 2.67 -1.32 2.34 -2 2 C-1.34 2 -0.68 2 0 2 C0 1.34 0 0.68 0 0 Z " fill="#71311C" transform="translate(208,96)"/>
<path d="M0 0 C3.96 0 7.92 0 12 0 C12 0.33 12 0.66 12 1 C9.36 1 6.72 1 4 1 C4 1.66 4 2.32 4 3 C2.68 3 1.36 3 0 3 C0 2.01 0 1.02 0 0 Z " fill="#73301D" transform="translate(150,37)"/>
<path d="M0 0 C-3.27156162 1.8874394 -6.24996419 2.60106002 -10 3 C-10.99 2.67 -11.98 2.34 -13 2 C-8.50343896 -0.24828052 -4.92127034 -0.16682272 0 0 Z " fill="#5E1F05" transform="translate(154,36)"/>
<path d="M0 0 C2.66666667 1.33333333 5.33333333 2.66666667 8 4 C8 4.66 8 5.32 8 6 C6.68 6 5.36 6 4 6 C4 5.34 4 4.68 4 4 C2.68 3.34 1.36 2.68 0 2 C0 1.34 0 0.68 0 0 Z " fill="#4A87C6" transform="translate(86,228)"/>
<path d="M0 0 C1.98 0.66 3.96 1.32 6 2 C6 5 6 5 5 8 C2.525 4.04 2.525 4.04 0 0 Z " fill="#EEBA51" transform="translate(208,202)"/>
<path d="M0 0 C1.65 0 3.3 0 5 0 C5 0.66 5 1.32 5 2 C4.34 2 3.68 2 3 2 C3.33 3.98 3.66 5.96 4 8 C3.34 7.67 2.68 7.34 2 7 C2 5.35 2 3.7 2 2 C1.34 2 0.68 2 0 2 C0 1.34 0 0.68 0 0 Z " fill="#EAD8A4" transform="translate(208,120)"/>
<path d="M0 0 C0.33 0.99 0.66 1.98 1 3 C0.00390625 4.82421875 0.00390625 4.82421875 -1.4375 6.6875 C-1.91058594 7.31011719 -2.38367188 7.93273437 -2.87109375 8.57421875 C-3.24363281 9.04472656 -3.61617187 9.51523438 -4 10 C-4.33 9.01 -4.66 8.02 -5 7 C-4.00390625 5.17578125 -4.00390625 5.17578125 -2.5625 3.3125 C-2.08941406 2.68988281 -1.61632812 2.06726563 -1.12890625 1.42578125 C-0.75636719 0.95527344 -0.38382813 0.48476562 0 0 Z " fill="#F3B852" transform="translate(217,91)"/>
<path d="M0 0 C1.9375 0.3125 1.9375 0.3125 4 1 C4.33 1.99 4.66 2.98 5 4 C4.67 4.66 4.34 5.32 4 6 C2.68 5.67 1.36 5.34 0 5 C0 3.33333333 0 1.66666667 0 0 Z " fill="#EEAE4E" transform="translate(218,84)"/>
<path d="M0 0 C0.99 0.66 1.98 1.32 3 2 C3 2.66 3 3.32 3 4 C0.36 4.33 -2.28 4.66 -5 5 C-3.35 3.35 -1.7 1.7 0 0 Z " fill="#F4AC36" transform="translate(55,28)"/>
<path d="M0 0 C2 0.6875 2 0.6875 4 2.6875 C0.94736336 3.66870464 -0.94736336 3.66870464 -4 2.6875 C-4 2.0275 -4 1.3675 -4 0.6875 C-2 -0.3125 -2 -0.3125 0 0 Z " fill="#F6AE28" transform="translate(202,12.3125)"/>
<path d="M0 0 C1.32 0 2.64 0 4 0 C4 1.32 4 2.64 4 4 C2.68 4.33 1.36 4.66 0 5 C0 3.35 0 1.7 0 0 Z " fill="#3C4433" transform="translate(186,222)"/>
<path d="M0 0 C-0.3125 1.875 -0.3125 1.875 -1 4 C-1.99 4.66 -2.98 5.32 -4 6 C-4 5.34 -4 4.68 -4 4 C-4.66 3.67 -5.32 3.34 -6 3 C-3.375 0 -3.375 0 0 0 Z " fill="#494045" transform="translate(82,205)"/>
<path d="M0 0 C5.75 0.875 5.75 0.875 8 2 C8 2.66 8 3.32 8 4 C5.23723823 3.47731534 2.6739124 2.89130413 0 2 C0 1.34 0 0.68 0 0 Z " fill="#E8B659" transform="translate(90,190)"/>
<path d="M0 0 C0.33 0 0.66 0 1 0 C1 1.98 1 3.96 1 6 C0.34 6 -0.32 6 -1 6 C-1.33 7.32 -1.66 8.64 -2 10 C-2.6875 8.375 -2.6875 8.375 -3 6 C-1.5625 2.75 -1.5625 2.75 0 0 Z " fill="#F1B03C" transform="translate(15,76)"/>
<path d="M0 0 C0.66 0 1.32 0 2 0 C1.67 1.65 1.34 3.3 1 5 C-0.32 5.33 -1.64 5.66 -3 6 C-2.01 4.02 -1.02 2.04 0 0 Z " fill="#E8A849" transform="translate(222,68)"/>
<path d="M0 0 C1.32 0.33 2.64 0.66 4 1 C3.34 2.65 2.68 4.3 2 6 C1.34 6 0.68 6 0 6 C0 4.02 0 2.04 0 0 Z " fill="#EEA835" transform="translate(214,52)"/>
<path d="M0 0 C0.99 0.33 1.98 0.66 3 1 C1.625 3 1.625 3 0 5 C-0.66 5 -1.32 5 -2 5 C-2.99 5.66 -3.98 6.32 -5 7 C-3.70700306 4.11562221 -2.34058637 2.12780579 0 0 Z " fill="#5C2003" transform="translate(93,32)"/>
<path d="M0 0 C0 0.66 0 1.32 0 2 C-0.66 2 -1.32 2 -2 2 C-2 2.66 -2 3.32 -2 4 C-4.31 4 -6.62 4 -9 4 C-3 0 -3 0 0 0 Z " fill="#F1AD41" transform="translate(84,12)"/>
<path d="M0 0 C0 0.66 0 1.32 0 2 C0.66 2.33 1.32 2.66 2 3 C0.02 3.99 0.02 3.99 -2 5 C-2.66 3.68 -3.32 2.36 -4 1 C-2 0 -2 0 0 0 Z " fill="#F6E6AD" transform="translate(143,247)"/>
<path d="M0 0 C0.66 0 1.32 0 2 0 C2 1.32 2 2.64 2 4 C2.66 4 3.32 4 4 4 C4 4.66 4 5.32 4 6 C-0.875 4.25 -0.875 4.25 -2 2 C-1.34 2 -0.68 2 0 2 C0 1.34 0 0.68 0 0 Z " fill="#32424E" transform="translate(110,240)"/>
<path d="M0 0 C0.66 0 1.32 0 2 0 C2 0.66 2 1.32 2 2 C1.34 2 0.68 2 0 2 C0 3.32 0 4.64 0 6 C-1.32 6 -2.64 6 -4 6 C-4 5.34 -4 4.68 -4 4 C-3.34 4 -2.68 4 -2 4 C-1.34 2.68 -0.68 1.36 0 0 Z " fill="#4F7EB5" transform="translate(46,226)"/>
<path d="M0 0 C1.98 0 3.96 0 6 0 C4.6875 2 4.6875 2 3 4 C2.01 4 1.02 4 0 4 C0 2.68 0 1.36 0 0 Z " fill="#2D464D" transform="translate(190,228)"/>
<path d="M0 0 C1.32 0 2.64 0 4 0 C4 1.65 4 3.3 4 5 C2.68 4.67 1.36 4.34 0 4 C0 2.68 0 1.36 0 0 Z " fill="#F0B72C" transform="translate(248,222)"/>
<path d="M0 0 C1.32 0.33 2.64 0.66 4 1 C1.03 3.475 1.03 3.475 -2 6 C-2 4.68 -2 3.36 -2 2 C-1.34 2 -0.68 2 0 2 C0 1.34 0 0.68 0 0 Z " fill="#2B465F" transform="translate(204,218)"/>
<path d="M0 0 C1.32 0 2.64 0 4 0 C4 0.66 4 1.32 4 2 C3.34 2 2.68 2 2 2 C2 2.66 2 3.32 2 4 C1.34 4 0.68 4 0 4 C-0.33 4.99 -0.66 5.98 -1 7 C-0.67 4.69 -0.34 2.38 0 0 Z " fill="#F4B240" transform="translate(16,202)"/>
<path d="M0 0 C2 1.3125 2 1.3125 4 3 C4 3.99 4 4.98 4 6 C4.33 6.99 4.66 7.98 5 9 C4.34 9 3.68 9 3 9 C0 3.375 0 3.375 0 0 Z " fill="#5F2104" transform="translate(72,96)"/>
<path d="M0 0 C2 1.375 2 1.375 4 3 C4 3.66 4 4.32 4 5 C2.35 5 0.7 5 -1 5 C-0.67 3.35 -0.34 1.7 0 0 Z " fill="#F7A935" transform="translate(253,53)"/>
<path d="M0 0 C2.64 0 5.28 0 8 0 C8.33 0.66 8.66 1.32 9 2 C6.75 2.6875 6.75 2.6875 4 3 C1.6875 1.5625 1.6875 1.5625 0 0 Z " fill="#743027" transform="translate(194,46)"/>
<path d="M0 0 C1.32 0.66 2.64 1.32 4 2 C3.360625 2.268125 2.72125 2.53625 2.0625 2.8125 C-0.33131686 3.88667752 -0.33131686 3.88667752 -1 7 C-2 4 -2 4 -1.0625 1.8125 C-0.5365625 0.9153125 -0.5365625 0.9153125 0 0 Z " fill="#E6B068" transform="translate(101,35)"/>
<path d="M0 0 C-0.33 0.99 -0.66 1.98 -1 3 C-3.64 2.67 -6.28 2.34 -9 2 C-5.5647952 -0.29013653 -4.014669 -0.17842973 0 0 Z " fill="#E4A744" transform="translate(184,34)"/>
<path d="M0 0 C2.0625 0.4375 2.0625 0.4375 4 1 C1.94766315 3.2477975 0.99332739 4.0022242 -2 5 C-1.125 1.125 -1.125 1.125 0 0 Z " fill="#F0AE54" transform="translate(102,22)"/>
</svg>
